<?xml version="1.0" encoding="UTF-8" standalone="no"?>
<svg
    version="1.0"
    width="1324"
    height="1324"
    viewBox="117 121 1324 1324"
    preserveAspectRatio="xMidYMid"
    id="svg1"
    xmlns="http://www.w3.org/2000/svg"
    xmlns:svg="http://www.w3.org/2000/svg"
>
    <g fill="#4c4f69" id="g1">
        <path
            d="m 841.5,1282.4 c -95.8,-6.3 -175.2,-40.1 -235,-99.9 -49.1,-49.1 -82.9,-111.4 -102.8,-190 -4.6,-17.8 -12,-55.7 -11.5,-58.2 0.2,-0.7 3.9,6.7 8.3,16.5 33.7,75.2 53,109.1 84.9,149.2 12.7,16 45.8,48.9 60.5,60.3 50.4,38.9 107,60.8 172.9,66.7 17.2,1.6 59.6,0.8 74.7,-1.5 41.6,-6 72.9,-15.7 109,-33.5 28.9,-14.3 53,-30.2 80,-52.9 65.4,-54.8 103.4,-129.4 112.1,-220.1 6.2901,-59.89233 -3.8446,-106.18385 -26.8,-160.1 C 1127.6,676 1063.3,619.4 976.1,590 935.2,576.2 876.5,571.6 831.5,578.6 670.05569,603.74962 562.176,747.53146 567.3,885.5 c 0.4,8.8 1.3,20.3 2.1,25.5 3.8,24.6 6.7,50.3 5.8,51.2 -4.85092,-1.98223 -41.47384,-17.03167 -50.6,-22.4 l 5.7,-5.3 c 3.1,-2.9 5.7,-5.9 5.7,-6.7 0,-0.7 -3.9,-6.1 -8.6,-12 -5.1,-6.4 -8.4,-11.5 -8.2,-12.5 0.2,-1.2 3.6,-3 11.1,-5.8 6.2,-2.3 11.3,-4.8 11.9,-5.8 0.9,-1.7 -4.2,-12.2 -17.3,-35.4 -2.2,-3.8 -2.2,-4.4 -0.9,-5.8 0.9,-0.8 6.6,-2.6 12.8,-3.8 6.1,-1.3 11.5,-2.6 11.8,-3 3.1,-3.1 -15.7,-19.3 -75.1,-64.5 l -12,-9.2 -0.3,3.4 c -0.3,3.7 3.6,23.9 9.9,51 2.1,9.4 3.6,17.8 3.3,18.9 -0.4,1.2 -4.8,3.8 -12.2,7.3 -13.2,6.2 -15.2,7.7 -15.2,11.3 0,1.3 2.5,9.3 5.6,17.5 6.9,18.8 6.4,17.3 5.7,19.2 -0.6,1.6 -13.1,11.4 -19.5,15.2 -4.3,2.6 -5.2,4.6 -3.7,7.5 1.5,2.7 14.3,18.9 16.4,20.7 4,3.3 2.3,5.2 -24.1,27.7 -30.6,26 -29.1,24.8 -30.9,23.3 -4.4,-3.7 -15.3,-44.2 -19.4,-72 -9,-60.9 -7.8,-118.3 3.5,-174.2 2.2,-10.5 3.4,-18.8 3,-20.4 -1.5,-6 -15,-17.4 -35.1,-29.8 -22.1,-13.7 -43.4,-28.2 -44.4,-30.3 -2.3,-5 0.7,-4.6 34.4,4.7 16,4.4 32.2,8.5 36,9.1 7.8,1.3 21.1,0.7 24.3,-1 l 2.1,-1.1 -2.1,-3.8 c -4.1,-7 -11.2,-15.4 -17.3,-20.2 -3.4,-2.7 -20.3,-14.3 -37.7,-25.9 -33.9,-22.5 -40.6,-27.7 -56.5,-43.3 -9.6,-9.4 -12.3,-13.1 -10.9,-14.6 1.2,-1.1 11.4,-0.2 21.2,1.9 5.4,1.1 22.5,6.3 37.9,11.4 15.4,5.1 35.4,11.4 44.4,14.1 8.66967,2.85158 30.19488,12.77891 39.7,7.1 4.28757,-12.25021 -42.55431,-50.71813 -57.4,-70.1 -2.9,-3.8 -2.8,-5.4 0.5,-6.7 2.2,-0.8 4.4,-0.4 11.7,2.1 11.1,3.9 17.6,7.2 33.3,16.7 28.9,17.5 41.7,20.4 57.3,13.1 5.7,-2.7 9.6,-6.2 32.5,-29.2 26,-26.2 41.2,-39.7 62,-55.1 71.2,-52.7 148.1,-80 240.8,-85.5 52.69474,-3.05688 183.04146,-6.49721 329.7,111.1 11.4,9.1 13.4,10.2 16.1,9.4 3,-1 26.2,-20.9 40.8,-35.1 7,-6.8 14,-12.8 15.5,-13.4 3,-1.1 2.9,-1.4 1.1,4.8 -0.4,1.3 -3.4,7.2 -6.8,13 -6.7,11.9 -17.1,33.1 -21,43.3 -1.9,4.8 -2.5,7.6 -2,10.3 l 0.6,3.7 4.1,-0.7 c 11.1,-1.8 23.2,-8.8 45.1,-26.2 18,-14.2 45.5,-33.1 48.3,-33.2 3,0 2.9,2.9 -0.2,11.1 -6,15.7 -12.4,27.8 -28.6,53.9 -13.8,22.2 -27.2,45.2 -26.6,45.7 1.2,1.2 13.7,1.4 19.1,0.3 4.1,-0.8 14.6,-5.6 32.5,-14.7 14.6,-7.5 27.3,-13.4 28.2,-13.2 2.7,0.6 -8,21.3 -26.8,52.4 -21.4,35.2 -21.8,36.2 -21.8,45.5 0,6.8 0.6,9 6.1,23 20.8,53.1 30.3,104.2 30.3,164 0,66.5 -12.5,132.4 -35.5,186.9 -30.9,73.4 -82.9,139 -143.5,181.3 -51.3,35.7 -113.7,59.1 -180,67.3 -12.1,1.6 -69.3,2.8 -83.5,1.9 z m -413,-465.7 c 8.4,-4.3 14.5,-12.3 14.5,-19.2 0,-6.5 -6.7,-15.7 -14.4,-19.7 -7.7,-4 -22.8,-1.6 -28.9,4.6 -2.1,2.1 -3.9,5.1 -4.6,7.9 -3.2,12.8 0.7,23.4 10.4,27.9 5.7,2.7 16.2,2 23,-1.5 z"
            transform="rotate(-0 875 911)"
            id="path1"
        />
        <path d="M 877.7,1162.3 826.1,1070 h 99.8 z" id="path2" />
        <path
            d="m 907.45,1038.65 c -3.65,-1.45 -3.65,-21.65 -2.35,-23.25 0.8,-1 3.7,-1.4 10.8,-1.4 11.2,0 12.6,-0.6 16.6,-7.7 6.41358,-11.54444 59.8,-98.67012 59.8,-103.4 0,-1.6 -2,-6.7 -4.4,-11.4 -3.5,-6.8 -4.2,-8.8 -3.3,-10.2 1.3,-2.1 7.1,-5.6 13.2,-7.9 4.1,-1.6 4.4,-1.6 6.1,0.2 2.4,2.5 91.1,163 91.1,164.8 0,0.1866 -183.38162,1.9059 -187.55,0.25 z"
            id="path3"
        />
        <path
            d="m 655,1038.5 c 0,-2.4 16.4,-33.4 50.1,-94.5 33.5,-60.8 40.6,-73 42.3,-73 1.7,0 16.6,7.7 18.4,9.5 1.4,1.4 0,6.3 -3.4,11.2 -3.1,4.5 -3.8,6.4 -3.8,10.2 0.1,5.7 0.5,6.6 20.8,40.5 14.6,24.4 19.1,32.3 32.1,56 7.2,13.1 13.8,17.3 25.3,16 8,-0.9 8.5,-0.1 8,12.2 -0.2,8.1 -0.6,9.8 -2.2,11 -1.7,1.2 -16.2,1.4 -94.8,1.4 -51,0 -92.8,-0.2 -92.8,-0.5 z"
            id="path4"
        />
        <path d="m 998.2,786.47698 102.4,0.023 -56.1,86.3 z" id="path5" />
        <path d="M 651.2,785.03607 756.1,785 707.5,871.8 Z" id="path6" />
        <path
            d="m 788.3,827.1 c -3.4,-2.2 -6.9,-5.1 -7.9,-6.6 -1.6,-2.5 -1.6,-2.8 1.3,-8.3 28.20758,-46.68657 92.8,-156.2 92.8,-156.2 0,0 95.81802,156.82889 98.5,161.4 3.68308,6.27737 -12.81749,12.6 -18.1,12.6 -3.1,0 -6.3,-3.3 -10.4,-10.9 -4.8,-8.7 -0.8,-8.2 -69.6,-7.9 -19.93434,0 -56.05099,-1.97804 -64.5,2.9 -4.51323,3.09272 -5.2,4.9 -7.8,9.7 -4.7,8.6 -5.6,8.8 -14.3,3.3 z"
            id="path7"
        />
        <path
            d="m 498.5,462 c -18.2,-6 -34.8,-8.1 -78.5,-10 -52.4,-2.2 -49.8,-1.9 -52,-6 -0.6,-1 -1.4,-6.8 -1.9,-12.7 -1.7,-20.3 -8.7,-29.2 -28.1,-35.8 -11,-3.7 -111.6,-10.1 -118.7,-11 -6.9,-1 -7.1,-2 -2.4,-15.1 2.2,-6.4 4.1,-13 4.1,-14.8 0,-6.9 -2.8,-8.6 -42,-25.1 -33.1,-13.9 -46.7,-20.4 -51.1,-24.3 -3.6,-3.2 -9.9,-13.7 -9.9,-16.5 0,-1.3 4.7,0 21.7,6 45.5,15.7 96.6,32.4 109.5,35.7 28.8,7.4 47.3,9.4 93.3,10.1 40.4,0.6 59.6,2.2 64.8,5.4 5.7,3.5 11.6,11.4 14.8,19.8 6.3,16.4 14.6,28 29.2,41.1 3.9,3.4 20.2,15.3 36.3,26.3 18.3,12.6 27.92924,20.32924 29.7,22.1 1.49353,1.64405 2.1,2.96204 2.1,5.6 0,3.31032 -9.9,2.8 -20.9,-0.8 z"
            id="path8"
        />
        <path
            d="m 1111.3,443.9 c -4.4,-1.3 -5.5,-3.7 -3.6,-7.7 2.2,-4.6 7.1,-8.3 39.3,-30.2 15.7,-10.6 32.4,-22.2 37.1,-25.6 11.5,-8.5 22.1,-19.8 30.3,-32.5 10.3,-15.8 14.5,-21.8 20.4,-29.1 7.4,-9.2 8.2,-9.5 42.2,-10.8 56.4,-2.2 71.8,-4.3 141.8,-19.6 11.2,-2.4 20.9,-4.4 21.5,-4.4 2.1,0.1 -6.2,4.8 -24.3,13.9 -9.6,4.9 -20.3,10.9 -23.6,13.4 -8.3,6.1 -15.6,16.3 -16.1,22.5 -0.5,4.6 -0.4,4.8 6.1,11.5 16.2,16.8 12.1,18.6 -71.1,30.7 -26.5,3.8 -50.5,7.5 -53.2,8.1 -5.7,1.2 -15.6,7.2 -18.9,11.4 -3.6,4.6 -2.9,8.1 2.6,13.4 2.6,2.5 7.9,6.9 11.7,9.6 4.9,3.5 7.1,5.9 7.7,7.9 0.4,1.7 0.6,3.1 0.5,3.2 -0.1,0.2 -14,0.5 -30.7,0.7 -39.4,0.6 -61.6,3.3 -92.9,11.3 -13.4,3.4 -20.7,4 -26.8,2.3 z"
            id="path9"
        />
    </g>
</svg>
