<svg
    viewBox="-18.86383 0 625.98749 644.85132"
    xmlns="http://www.w3.org/2000/svg"
>
    <path
        d="m 280.72545,0.53232695 c -58.972,6.07300005 -108.633,26.29900005 -154.5,62.92400005 -27.774998,22.178 -54.084998,52.439003 -73.131998,84.115003 -13.516,22.477 -27.876,55.442 -35.476,81.44 -2.129,7.282 -2.156,7.788 -0.543,10.25 1.584,2.418 2.212,2.59 9.452,2.59 9.38,0 11.514,-1.222 13.094,-7.497 0.632,-2.508 3.569,-11.23 6.528,-19.382 32.895,-90.615 102.012998,-157.870003 188.076998,-183.006003 25.592,-7.474 58.842,-11.017 84.974,-9.055 58.022,4.356 106.732,24.356 151.591,62.239 44.015,37.172003 75.7,86.559003 93.477,145.701003 2.562,8.525 5.127,16.759 5.699,18.297 1.552,4.171 5.667,5.844 13.526,5.498 6.296,-0.278 6.749,-0.459 7.66,-3.058 2.952,-8.424 -14.147,-58.735 -30.329,-89.237 -30.908,-58.26 -78.114,-105.491003 -132.789,-132.860003 -39.623,-19.834 -82.634,-29.87700005 -126.249,-29.48000005 -9.658,0.088 -19.135,0.322 -21.06,0.521"
        fill="#4c4f69"
    />
    <path
        d="m 300.86045,44.350327 c -0.52698,0.600254 -21.0861,27.680819 -27.135,42.481 0,1.282 13.009,1.362 16.185,0.099 3.31423,-1.317361 15.78662,-19.020877 17.405,-19.056 1.53963,-0.03079 15.83548,18.552 17.19431,18.552 1.873,0 7.21569,7.599 7.21569,10.28 0,3.686003 3.004,9.028003 11.235,19.982003 7.106,9.456 7.969,11.552 9.241,22.446 0.596,5.1 1.313,6.533 6.07,12.141 7.766,9.154 10.421,14.671 11.478,23.856 1.031,8.956 0.804,8.452 7.143,15.851 2.654,3.097 6.608,9.242 8.787,13.655 3.733,7.559 4.182,8.06 7.754,8.65 8.887,1.468 16.98,-2.251 19.921,-9.154 3.291,-7.723 0.438,-12.526 -8.818,-14.849 -15.959,-4.004 -18.46,-4.835 -20.061,-6.66 -7.75793,-8.84662 20.94883,-19.76458 12.693,-31.55 -5.29865,-7.56795 -35.04244,7.60357 -31.956,-15.984 1.62601,-10.84162 14.53534,-12.69982 14.498,-20.529 0.17535,-9.59081 -13.14094,-6.51549 -19.437,-5.773 -7.591,1.01 -9.062,0.956 -11.147,-0.41 -9.33595,-5.74676 21.83614,-20.809778 12.146,-29.240003 -2.927,-2.518 -3.136,-2.548 -16.047,-2.307 l -9,0.168 c -6.3946,-8.631606 -12.91011,-17.176099 -19.167,-25.909 -7.894,-11.107 -11.168,-12.469 -16.198,-6.74"
        fill="#4c4f69"
    />
    <path
        d="m 216.39245,68.518327 c -1.671,1.67 -0.158,10.369 5.364,30.833 4.45194,16.496043 0.9308,19.590943 -15.734,30.730003 -7.038,4.704 -16.312,11.077 -20.608,14.162 -5.85128,4.23693 -13.0374,6.32673 -13.689,14.541 0,4.926 6.256,11.664 11.742,12.647 5.993,1.074 7.299,2.828 7.009,9.411 -0.216,4.891 0.16,6.272 2.707,9.948 3.571,5.154 5.527,5.985 14.521,6.17 6.737,0.138 7.019,0.044 9.715,-3.233 6.911,-8.401 15.506,-14.876 19.747,-14.876 2.504,0 8.771,-3.497 11.494,-6.414 3.77,-4.039 8.901,-5.014 14.273,-2.711 18.83524,8.07277 9.32395,30.0694 -4.918,30.139 -1.535,0.007 -3.859,0.299 -5.165,0.649 -2.229,0.597 -2.344,0.985 -1.863,6.295 0.306,3.366 0.046,6.532 -0.64,7.813 -4.41889,4.84768 -10.42802,8.08961 -15.919,11.603 l -3.8,-2.187 c -4.632,-2.666 -12.37,-3.018 -13.296,-0.605 -2.012,5.243 0.798,18.645 4.625,22.058 4.077,3.635 18.388,5.596 24.337,3.334 7.836,-2.98 21.431,-1.677 21.431,2.053 0,0.32394 -27.24336,37.27583 -41,36.322 -20.8284,-2.49983 -24.63226,-8.09228 -35.5,-11.402 -8.19572,-3.83408 -15.90379,-6.33581 -25,-6.914 -6.561,-0.381 -11.865,-1.193 -13.144,-2.011 -3.42872,-2.1909 -14.14397,-23.08628 -22.933,-30.342 -8.41478,-6.94627 -32.430707,-4.67229 -35.520998,-1.582 -2.874,2.874 -2.333,4.459 2.484,7.283 8.691998,5.093 15.833998,16.942 12.860998,21.335 -0.453,0.669 -4.856,3.238 -9.785,5.709 -12.063413,6.04765 -16.461998,8.80953 -16.461998,18.71 -0.715129,6.48899 2.606883,6.74506 7.35,3.973 4.971,-3.278 19.552998,-7.659 21.470998,-6.451 3.512,2.212 2.522,4.494 -4.892,11.276 -8.66253,5.70909 -9.735676,15.74652 -5.361,24.615 6.26231,12.37522 10.1042,0.95635 10.18,0.728 1.833,-5.526 6.04,-8.976 12.007,-9.849 6.982,-1.021 15.977,-5.859 18.34,-9.863 1.612,-2.733 2.778,-3.468 6.355,-4.004 4.715,-0.707 10.38,1.198 21.55,7.248 56.41455,30.55405 62.00249,30.6447 68.886,29.112 15.712,-3.501 35.836,-12.356 45.052,-19.824 2.441,-1.978 5.657,-4.496 7.148,-5.596 5.99928,-4.429 16.70864,-21.10536 20.132,-17.682 1.559,1.559 -14.419,18.637 -24.689,26.388 -8.72862,6.58699 -30.2692,20.58166 -58.23,22.845 -15.74221,0.99501 -43.821,13.62739 -43.509,15.091 0.159,0.747 2.767,6.439 5.796,12.65 4.212,8.639 6.116,11.525 8.105,12.281 l 21.2632,-4.0192 c 0,0 -32.72148,32.27626 -21.8392,57.3922 2.03457,2.04272 165.69477,13.554 165.839,13.554 1.057,0 3.711,-3.294 7.048,-8.75 14.932,-24.41 35.758,-59.183 36.315,-60.634 0.492,-1.282 -0.958,-2.394 -6.593,-5.05 -5.689,-2.683 -9.842,-3.757 -19.549,-5.057 -18.091,-2.423 -23.381,-4.765 -26.215,-11.605 -1.852,-4.471 2.627,-14.251 23.542,-51.404 15.5878,-27.68943 16.88725,-33.6936 16.739,-51.79 -0.121,-14.87 -0.978,-18.963 -5.279,-25.21 -1.515,-2.2 -3.028,-5.892 -3.362,-8.205 -0.944,-6.516 -7.071,-18.908 -12.434,-25.147 -7.029,-8.177 -7.814,-9.738 -9.633,-19.148 -2.343,-12.117 -2.818,-13.229 -8.636,-20.218 -6.463,-7.764 -8.474,-12.331 -9.32,-21.161 -0.592,-6.175 -1.137,-7.507 -5.319,-13 -5.88761,-6.60877 -10.91695,-12.81479 -13.25,-21.621003 -0.45865,-7.087979 -5.41951,-7.994861 -9.508,-12 -4.014,-4.19 -10.5,-4.145 -21.174,0.145 -11.94,4.8 -17.001,5.888 -24.326,5.233 -10.63671,-0.952814 -13.18298,2.560867 -16.568,2.607 -3.54739,0.04826 -38.61583,-29.4711 -40.765,-27.318 m 43.20365,63.359023 a 7,7 0 1 0 -14,0 a 7,7 0 1 0 14,0 z"
        fill="#4c4f69"
        fill-rule="evenodd"
    />
    <path
        d="m 468.05945,125.33033 c -1.895,1.327 -4.829,5.248 -12.228,16.341 -9.83646,16.64489 -6.83876,16.4122 -28.816,16.335 -14.28827,-0.0267 -27.97499,-3.13312 -16.398,16.26 2.67078,3.92447 62.76334,92.47201 64.886,117.643 -3.60845,39.34509 -45.66359,88.41923 -41.172,95.659 2.05,3.307 7.307,5.562 13.23,5.675 4.647,0.089 7.041,-0.565 13.336,-3.642 19.55164,-7.81149 80.50767,-38.30025 81.95,-96.551 -2.87172,-75.17587 -62.73353,-165.11245 -66.434,-167.705 -2.707,-1.896 -5.661,-1.901 -8.354,-0.015"
        fill="#4c4f69"
    />
    <path
        d="m 235.22545,183.52533 c -2.842,1.464 -11.462,10.711 -12.284,13.177 -0.147,0.44099 10.64735,3.56994 13.77,-1.818 2.03039,-3.50331 6.88278,-9.24897 2.764,-12.969 -0.687,0.035 -2.6,0.76 -4.25,1.61"
        fill="#4c4f69"
    />
    <path
        d="m 128.01445,198.50333 c -6.803,2.405 -24.278,23.607 -22.747,27.597 0.677,1.763 9.042,3.145 13.01,2.149 1.448,-0.364 5.2,-3.302 8.339,-6.53 5.972,-6.14 6.247,-6.242 16.109,-5.963 1.925,0.055 25.032,0.571 51.349,1.147 42.978,0.942 48.093,0.888 50.25,-0.525 3.382,-2.216 3.57605,-12.94246 -1.48456,-13.1357 l -1.63144,-0.0623 c -20.77273,-0.61973 -87.42449,-3.86622 -105.983,-5.757 -1.65,-0.225 -4.895,0.261 -7.211,1.08"
        fill="#4c4f69"
    />
    <path
        d="m 396.72545,217.75133 c -5.44026,-0.0459 -4.43029,4.96829 -2.152,8.161 1.763,2.177 2.825,2.332 23.097,3.361 11.686,0.593 21.465,0.726 21.73,0.296 0.265,-0.43 -0.843,-3.13 -2.463,-6 -2.683,-4.755 -3.334,-5.278 -7.328,-5.894 -5.27,-0.812 -26.588,-0.763 -32.884,0.076"
        fill="#4c4f69"
    />
    <path
        d="m 200.03645,222.60933 c -1.203,0.958 -4.086,5.342 -6.405,9.742 -2.319,4.4 -5.782,10.925 -7.695,14.5 -8.457,15.803 -8.427,15.729 -7.334,17.77 1.318,2.464 10.61,6.527 13.11,5.734 1.045,-0.332 3.961,-4.468 6.555,-9.301 2.571,-4.786 6.937,-12.65 9.703,-17.475 4.87,-8.495 5.011,-8.963 4.48,-14.829 -0.303,-3.331 -0.702,-6.189 -0.887,-6.35 -0.186,-0.161 -2.363,-0.572 -4.838,-0.913 -3.452,-0.475 -5.01,-0.214 -6.689,1.122"
        fill="#4c4f69"
    />
    <path
        d="m 399.38045,234.60133 c -0.057,0.0927 0.28618,23.22892 7.263,33.172 1.57506,2.24466 34.082,66.6583 34.082,67.37 -5.28392,8.67683 -26.18102,42.28857 -55.415,88.708 -12.249,19.45 -13.767,22.638 -11.47,24.092 1.678,1.063 10.943,1.169 12.499,0.143 16.97425,-20.64423 70.386,-108.72375 70.386,-117.697 0,-4.90925 -35.70958,-73.01273 -39.116,-78.381 -4.58832,-7.20619 -4.74461,-17.04713 -15.075,-18.143 -1.48,-0.008 -2.899,0.323 -3.154,0.736"
        fill="#4c4f69"
    />
    <path
        d="m 89.534452,248.10133 c -4.050283,7.22223 -12.33592,17.45626 -38.258,57.606 -10.703,16.204 -10.966,21.014 -1.89,34.594 3.949176,5.90796 22.287732,36.3409 63.277998,101.542 5.69,9.356 7.037,9.911 25.422,10.481 10.23535,0.31591 87.70395,4.8447 89.139,5.028 58.29171,4.20889 116.61432,8.19015 174.969,11.456 10.554,0.547 17.638,0.521 18.738,-0.068 1.839,-0.984 3.426,-5.287 2.91,-7.889 -0.685,-3.453 -3.248,-4.777 -10.42,-5.382 -62.0266,-5.236 -279.23343,-20.24546 -280.57,-20.886 -24.21548,-25.99069 -44.084486,-60.2164 -63.717123,-90.531 -7.415,-11.308 -7.316875,-17.541 -7.366875,-18.897 -0.023,-0.658 1.559,-3.808 3.518,-7 14.877,-24.248 14.439,-23.35 14.439,-29.56 -0.462118,-9.62172 6.619062,-15.80199 14.208,-20.644 4.468,-2.664 8.562998,-7.341 9.420998,-10.758 0.511,-2.037 -0.18,-3.328 -3.707998,-6.923 -4.864,-4.955 -8.154,-5.661 -10.112,-2.169"
        fill="#4c4f69"
    />
    <path
        d="m 11.475452,256.93133 c -5.5126269,5.06606 -9.9870158,25.00405 -1.458,40.157 5.747,10.213 9.143,11.169 16.283,4.587 5.631,-5.19 18.395,-22.066 21.426,-28.327 3.054486,-6.30991 2.120278,-15.497 -6.683,-15.497 -8.629414,0 -12.714015,10.00559 -16.415,9.996 -3.533426,-0.009 -3.771522,-16.37981 -13.153,-10.916"
        fill="#4c4f69"
    />
    <path
        d="m 588.89045,270.60133 c -1.37175,2.65517 -3.02968,12.20256 -4.735,14.107 -3.92036,4.3791 -10.3407,-17.58814 -18.854,-13.71 -12.70769,5.79115 8.00782,41.9887 21.549,49.853 2.208,0 9.281,-8.853 12.635,-15.815 10.91735,-22.66358 -5.95634,-43.39686 -10.595,-34.435"
        fill="#4c4f69"
    />
    <path
        d="m 149.80445,314.47533 c -4.166,8.422 -5.133,11.272 -4.664,13.75 0.0706,0.37356 41.5954,80.19706 47.012,79.422 4.95284,-0.70729 5.94679,-18.7061 2.774,-22.911 -7.83145,-18.64341 -25.5826,-39.22285 -30.201,-57.753 0,-2.78966 5.28653,-12.40492 4.821,-14.821 -0.357,-1.853 -10.372,-8.3 -12.904,-8.307 -1.017,-0.003 -3.463,3.797 -6.838,10.62"
        fill="#4c4f69"
    />
    <path
        d="m 1.6554524,308.43533 c -7.3775433,16.57041 3.5115664,30.93525 11.6159996,43.504 2.37,4.584 6.084,3.979 10.717,-1.746 8.902268,-11.00064 18.834036,-37.14139 12.296,-41.923 -6.827849,-4.08633 -13.242002,6.29459 -17.481,10.819 -3.865969,-3.02131 -11.9582076,-15.97561 -17.1479996,-10.654"
        fill="#4c4f69"
    />
    <path
        d="m 544.08745,317.17133 c -4.412,8.917 -4.22,10.245 2.61,18.051 2.765,3.16 5.028,6.316 5.028,7.012 0,0.697 -2.047,3.934 -4.548,7.192 -5.966,7.772 -5.935,7.735 -18.343,21.807 -5.877,6.665 -12.515,14.593 -14.752,17.618 -2.237,3.025 -6.72,8.465 -9.962,12.09 -12.77,14.276 -21.983,25.289 -23.798,28.446 -1.741,3.03 -1.792,3.834 -0.596,9.47 0.719,3.388 1.983,6.835 2.808,7.66 1.335,1.335 2.066,0.905 6.596,-3.872 2.802,-2.956 6.445,-7.149 8.095,-9.319 1.65,-2.17 4.495,-5.493 6.323,-7.383 1.827,-1.891 5.275,-6.172 7.66,-9.515 2.386,-3.342 9.832,-11.927 16.547,-19.077 12.001,-12.779 22.682,-25.719 26.312,-31.876 1.013,-1.718 2.88,-4.249 4.148,-5.624 5.787,-6.273 7.511,-10.049 7.486,-16.39 -0.035,-8.76 -1.616,-14.449 -5.3,-19.071 -1.77,-2.221 -4.526,-5.978 -6.125,-8.349 -5.026,-7.454 -5.995,-7.346 -10.189,1.13"
        fill="#4c4f69"
    />
    <path
        d="m 569.90545,320.79633 c -1.532,2.519 -1.68,4.145 -1.026,11.25 2.1761,23.63078 12.11817,35.805 17.7,35.805 2.38647,0 15.72684,-4.56921 19.491,-26.652 1.862,-10.921 1.314,-15.685 -2.116,-18.383 -5.092,-4.005 -9.674,-1.173 -12.796,7.907 -1.537,4.473 -3.672,6.004 -5.849,4.198 -2.25441,-1.87137 -9.64417,-23.59917 -15.404,-14.125"
        fill="#4c4f69"
    />
    <path
        d="m 27.573452,356.01433 c -4.376667,4.68371 -7.549641,11.837 -9.257,11.837 -2.46164,0 -9.7348032,-14.8562 -15.6299996,-8.961 -8.2276219,8.22762 7.2291832,44.961 19.3289996,44.961 16.651679,-8.19836 22.348999,-42.51315 13.906,-48.364 -3.927039,-3.10827 -5.015258,-2.89204 -8.348,0.527"
        fill="#4c4f69"
    />
    <path
        d="m 117.73245,355.44433 c -6.29,2.728 -11.007,8.616 -11.007,13.741 0,2.285 0.395,2.458 6.489,2.846 7.353,0.468 11.844,3 12.275,6.919 0.48291,4.41018 -13.03855,9.30901 -15.671,14.227 -1.297,2.423 -1.176,3.006 1.537,7.402 3.458,5.603 5.992,6.367 9.331,2.814 7.3004,-7.77061 22.22973,4.56847 14.6,16.229 -5.705,8.721 -4.079,12.229 5.67,12.229 5.95,0 6.218,-0.119 11.82,-5.25 9.60459,-7.92135 18.96202,-14.60195 18.346,-28.388 -0.426,-4.584 -0.253,-7.762 0.498,-9.167 1.33,-2.485 0.472,-4.774 -5.697,-15.195 l -3.848,-6.5 -5.576,0.297 c -5.42,0.29 -5.723,0.164 -10.72,-4.439 -7.65031,-8.1227 -17.43502,-11.36567 -28.047,-7.765"
        fill="#4c4f69"
    />
    <path
        d="m 411.22545,355.82333 c -8.546,3.122 -13.972,6.486 -14.323,8.882 -0.272,1.852 0.726,2.681 6.228,5.175 3.603,1.634 7.008,2.971 7.567,2.971 0.559,0 3.545,-3.879 6.635,-8.621 4.393,-6.739 5.322,-8.81 4.256,-9.485 -1.993,-1.262 -4.735,-0.977 -10.363,1.078"
        fill="#4c4f69"
    />
    <path
        d="m 569.96045,367.88833 c -11.21656,4.50464 1.69341,49.97538 9.56,49.959 4.776,-0.01 15.358,-10.979 20.686,-21.442 8.12839,-15.96285 -3.80513,-30.81817 -8.867,-20.153 -1.66634,3.46727 -1.21499,7.83057 -5.775,8.599 -4.44878,0 -3.92001,-21.65843 -15.604,-16.963"
        fill="#4c4f69"
    />
    <path
        d="m 427.53045,394.60133 c -1.834,2.133 -32.023,47.837 -33.701,51.021 -0.658,1.249 -0.961,2.651 -0.673,3.117 2.02736,3.28475 25.03059,-1.14378 31.595,7.145 3.762,4.749 3.916,9.302 0.474,13.967 -2.99,4.053 -3.135,6.829 -0.616,11.79 15.17235,29.87598 -11.70307,62.17936 -42.796,62.204 -7.039,0.007 -14.881,-2.064 -22.588,-5.964 -10.24997,-5.18709 -7.67791,-14.17839 -12.169,-11.187 -1.291,0.859 -15.331,22.209 -15.331,23.313 0,0.4132 12.36996,17.12698 55.924,15.428 26.56828,0.0958 90.48424,-47.0434 93.714,-92.584 -0.36141,-21.96793 -3.46331,-56.018 -42.077,-76.504 -7.428,-3.941 -9.592,-4.262 -11.756,-1.746"
        fill="#4c4f69"
    />
    <path
        d="m 35.943452,398.41133 c -4.33898,3.03729 -3.80606,19.44 -6.52,19.44 -3.676098,0 -14.885648,-15.97503 -19.33,-5.338 -3.7870716,9.06061 8.717085,34.38899 32.626,37.601 16.256637,-36.76147 -0.628525,-56.00927 -6.776,-51.703"
        fill="#4c4f69"
    />
    <path
        d="m 558.68945,414.39033 c -4.54393,4.83364 -6.87388,41.85195 -0.493,46.034 4.654,3.049 20.586,-4.507 25.999,-12.33 7.002,-10.121 8.495,-12.937 8.512,-16.059 0.0462,-8.63842 -5.65038,-12.30845 -13.656,-2.536 -2.001,2.441 -4.322,4.307 -5.159,4.145 -4.09977,-0.7897 -4.54606,-30.61002 -15.203,-19.254"
        fill="#4c4f69"
    />
    <path
        d="m 50.422452,450.60133 c -0.952,4.262 -1.724,8.988 -1.714,10.5 0.06269,10.29624 -18.584385,-15.54749 -21.545,0.229 -1.184,6.309 7.609,18.478 18.986,26.274 6.406,4.391 8.38,5.247 12.093,5.247 12.908419,0 12.838049,-50 -4.204,-50 -1.535,0 -2.205,1.438 -3.616,7.75"
        fill="#4c4f69"
    />
    <path
        d="m 539.26945,459.10133 c -6.165,5.403 -8.455,33.124 -3.533,42.771 5.79499,10.51076 27.97536,-9.81887 29.714,-11.437 6.56629,-4.95117 12.84791,-26.69653 -4.748,-13.566 -7.66791,5.71944 -9.4854,6.30567 -9.111,-6.697 0.223,-7.781 0.006,-9.086 -1.845,-11.071 -3.16518,-3.39126 -7.76998,-2.37344 -10.477,0"
        fill="#4c4f69"
    />
    <path
        d="m 207.57845,460.52133 c -2.271,0.603 -2.75,3.183 -1.361,7.33 15.85109,27.25553 65.07694,17.97405 90.513,16.437 l 11.248,-5.731 c 6.186,-3.151 11.81,-5.725 12.497,-5.718 0.688,0.007 1.25,-1.075 1.25,-2.403 0,-2.729 1.965,-2.439 -31.5,-4.649 -19.661,-1.298 -32.361,-2.233 -59.5,-4.379 -20.224,-1.6 -20.434,-1.608 -23.147,-0.887"
        fill="#4c4f69"
    />
    <path
        d="m 358.01345,470.55233 c -4.34,0.568 -6.887,3.949 -19.616,26.038 -8.0933,12.22442 -14.12789,26.06594 -23.371,37.5 -1.60727,1.75699 -13.38055,19.78616 -16.048,19.751 -1.94727,-0.0265 -13.82886,-17.65435 -34.324,-49.279 l -8.935,-13.789 -8.747,0.289 c -8.279,0.274 -8.765,0.413 -9.075,2.6 -0.198,1.403 1.217,4.743 3.603,8.5 12.86917,20.27375 24.14951,40.53653 37.475,60.514 9.72653,14.57932 7.59635,13.48349 13.156,19.925 2.688,3.113 7.579,2.993 10.839,-0.267 15.25866,-20.32489 68.64664,-100.18939 68.729,-108.733 0.023,-2.439 -0.342,-2.752 -3.224,-2.764 -4.89063,-0.0192 -6.10614,-0.85444 -10.462,-0.285"
        fill="#4c4f69"
    />
    <path
        d="m 319.72545,477.54733 c -6.148,2.207 -28,13.8 -28,14.855 0.81081,10.86948 9.23477,30.42935 17.739,37.884 0.745,0.297 4.871,-4.957 10.355,-13.184 l 9.116,-13.678 -0.658,-10.537 c -0.943,-15.101 -2.322,-17.576 -8.552,-15.34"
        fill="#4c4f69"
    />
    <path
        d="m 72.700452,486.41633 c -0.536,1.411 -0.975,6.136 -0.975,10.5 0,9.151 -0.107,9.224 -8.761,5.934 -6.903,-2.623 -9.037,-2.536 -10.386,0.424 -4.418442,9.69837 24.667881,36.72396 40.398,27.594 7.497608,-5.89722 -2.198556,-36.374 -10.765,-43.895 -4.439,-3.898 -8.158,-4.115 -9.511,-0.557"
        fill="#4c4f69"
    />
    <path
        d="m 513.62645,499.83433 c -2.23876,2.35371 -18.52762,24.69328 -10.886,44.186 28.97718,-0.68487 44.62662,-18.42416 42.458,-25.254 -1.26285,-3.97669 -13.55996,-0.84352 -15.058,-0.335 -6.214,2.11 -7.045,1.184 -5.563,-6.195 1.684,-8.389 1.502,-15.035 -0.434,-15.778 -3.849,-1.477 -6.801,-0.529 -10.517,3.376"
        fill="#4c4f69"
    />
    <path
        d="m 104.06945,520.61833 c -6.937842,3.16496 0.44481,16.68314 2.657,21.235 6.2638,11.70401 -21.689843,-12.93214 -19.711998,4.959 1.464441,13.22493 35.468078,30.93251 41.634998,18.539 6.60115,-13.71095 -8.83479,-47.2675 -24.58,-44.733"
        fill="#4c4f69"
    />
    <path
        d="m 485.00945,532.86033 c -11.68966,5.30762 -15.72556,29.70854 -16.738,37.605 -0.802,7.087 0.283,7.809 10.725,7.132 9.832,-0.637 17.507,-3.438 23.179,-8.461 12.66995,-11.21887 7.30208,-22.03352 -6.872,-12.744 -4.722,3.094 -7.44,-0.72 -4.152,-5.826 2.7539,-4.27651 9.22621,-24.68647 -6.142,-17.706"
        fill="#4c4f69"
    />
    <path
        d="m 135.62345,554.47433 c -2.49025,2.99904 7.102,15.40731 7.102,18.295 0,2.48795 -13.34509,-1.12156 -16.443,3.305 -7.36649,10.51547 9.67939,23.41748 37.864,16.803 7.847,-2.59 9.824,-10.314 4.633,-18.105 -7.60692,-11.41481 -27.29998,-27.35319 -33.156,-20.298"
        fill="#4c4f69"
    />
    <path
        d="m 449.76145,563.10833 c -3.707,0.975 -13.227,8.134 -19.163,14.409 -6.738,7.124 -9.873,12.353 -9.873,16.47 0.18768,8.80461 11.49217,9.29455 17.955,9.216 31.00609,-0.48161 38.57109,-17.34897 17.045,-18.702 -2.763,-0.118 -3.565,-0.603 -3.807,-2.303 -0.0888,-0.62442 18.35648,-24.48773 -2.157,-19.09"
        fill="#4c4f69"
    />
    <path
        d="m 178.32945,579.00633 c -3.75597,5.3624 12.34538,18.50015 10.81,20.984 -0.75742,1.22531 -16.47453,0.56295 -18.832,1.468 -11.79328,4.52543 18.54748,24.24949 41.168,15.723 3.537,-1.333 4.25,-2.049 4.25,-4.269 -2.85748,-19.10544 -30.20778,-44.16485 -37.396,-33.906"
        fill="#4c4f69"
    />
    <path
        d="m 403.22545,584.88033 c -11.59418,5.75335 -24.86446,21.05167 -26.103,30.088 -1.38919,12.62728 16.1834,12.38651 24.535,10.809 15.364,-3.138 26.369,-10.047 23.434,-14.712 -0.88,-1.399 -2.927,-1.766 -11.128,-1.998 -11.742,-0.332 -13.218,-1.491 -8.444,-6.634 11.60359,-12.50324 11.90106,-24.59891 -2.294,-17.553"
        fill="#4c4f69"
    />
    <path
        d="m 219.97545,594.88233 c -11.77763,4.73562 16.15053,19.55238 10.622,21.105 -7.313,0.8887 -21.61692,2.45572 -14.122,12.898 2.335,2.603 3.869,3.232 10.161,4.161 21.85182,3.2272 39.089,-12.37862 39.089,-15.179 -7.29855,-10.01863 -21.5217,-15.01189 -32.179,-21.266 -4.77,-2.804 -9.408,-3.392 -13.571,-1.719"
        fill="#4c4f69"
    />
    <path
        d="m 352.09845,601.76733 c -13.44697,4.15707 -26.373,10.27121 -26.373,18.416 0,5.17503 23.95017,24.81961 42.806,15.266 4.467,-2.263 5.194,-3.039 5.194,-5.543 -0.47849,-5.08874 -9.08267,-6.60506 -13.415,-7.055 -1.287,0 -2.945,-0.729 -3.685,-1.621 -1.164,-1.402 -0.965,-1.909 1.464,-3.75 3.07829,-3.44201 22.67121,-14.93196 11.77,-18.471 -4.84,-1.45 -10.1016,0.54026 -17.761,2.758"
        fill="#4c4f69"
    />
    <path
        d="m 289.57045,605.45233 c -2.39,1.981 -7.157,6.482 -10.595,10.003 -7.712,7.9 -7.996,10.016 -2.045,15.219 2.313,2.022 6.251,5.527 8.75,7.787 5.216,4.718 8.074,6.39 10.918,6.39 1.102,0 6.307,-3.646 11.566,-8.102 11.829,-10.024 12.011,-10.935 4.153,-20.782 -12.668,-15.877 -14.985,-16.949 -22.747,-10.515"
        fill="#4c4f69"
    />
</svg>
