<?xml version="1.0" encoding="UTF-8" standalone="no"?>
<svg
    version="1.0"
    width="1324"
    height="1324"
    viewBox="117 121 1324 1324"
    preserveAspectRatio="xMidYMid"
    id="svg1"
    xmlns="http://www.w3.org/2000/svg"
    xmlns:svg="http://www.w3.org/2000/svg"
>
    <g fill="#c6d0f5" id="g1">
        <path
            d="m 841.5,1282.4 c -95.8,-6.3 -175.2,-40.1 -235,-99.9 -49.1,-49.1 -82.9,-111.4 -102.8,-190 -4.6,-17.8 -12,-55.7 -11.5,-58.2 0.2,-0.7 3.9,6.7 8.3,16.5 33.7,75.2 53,109.1 84.9,149.2 12.7,16 45.8,48.9 60.5,60.3 50.4,38.9 107,60.8 172.9,66.7 17.2,1.6 59.6,0.8 74.7,-1.5 41.6,-6 72.9,-15.7 109,-33.5 28.9,-14.3 53,-30.2 80,-52.9 65.4,-54.8 103.4,-129.4 112.1,-220.1 6.2901,-59.89233 -3.8446,-106.18385 -26.8,-160.1 C 1127.6,676 1063.3,619.4 976.1,590 935.2,576.2 876.5,571.6 831.5,578.6 670.05569,603.74962 562.176,747.53146 567.3,885.5 c 0.4,8.8 1.3,20.3 2.1,25.5 3.8,24.6 6.7,50.3 5.8,51.2 -4.85092,-1.98223 -41.47384,-17.03167 -50.6,-22.4 l 5.7,-5.3 c 3.1,-2.9 5.7,-5.9 5.7,-6.7 0,-0.7 -3.9,-6.1 -8.6,-12 -5.1,-6.4 -8.4,-11.5 -8.2,-12.5 0.2,-1.2 3.6,-3 11.1,-5.8 6.2,-2.3 11.3,-4.8 11.9,-5.8 0.9,-1.7 -4.2,-12.2 -17.3,-35.4 -2.2,-3.8 -2.2,-4.4 -0.9,-5.8 0.9,-0.8 6.6,-2.6 12.8,-3.8 6.1,-1.3 11.5,-2.6 11.8,-3 3.1,-3.1 -15.7,-19.3 -75.1,-64.5 l -12,-9.2 -0.3,3.4 c -0.3,3.7 3.6,23.9 9.9,51 2.1,9.4 3.6,17.8 3.3,18.9 -0.4,1.2 -4.8,3.8 -12.2,7.3 -13.2,6.2 -15.2,7.7 -15.2,11.3 0,1.3 2.5,9.3 5.6,17.5 6.9,18.8 6.4,17.3 5.7,19.2 -0.6,1.6 -13.1,11.4 -19.5,15.2 -4.3,2.6 -5.2,4.6 -3.7,7.5 1.5,2.7 14.3,18.9 16.4,20.7 4,3.3 2.3,5.2 -24.1,27.7 -30.6,26 -29.1,24.8 -30.9,23.3 -4.4,-3.7 -15.3,-44.2 -19.4,-72 -9,-60.9 -7.8,-118.3 3.5,-174.2 2.2,-10.5 3.4,-18.8 3,-20.4 -1.5,-6 -15,-17.4 -35.1,-29.8 -22.1,-13.7 -43.4,-28.2 -44.4,-30.3 -2.3,-5 0.7,-4.6 34.4,4.7 16,4.4 32.2,8.5 36,9.1 7.8,1.3 21.1,0.7 24.3,-1 l 2.1,-1.1 -2.1,-3.8 c -4.1,-7 -11.2,-15.4 -17.3,-20.2 -3.4,-2.7 -20.3,-14.3 -37.7,-25.9 -33.9,-22.5 -40.6,-27.7 -56.5,-43.3 -9.6,-9.4 -12.3,-13.1 -10.9,-14.6 1.2,-1.1 11.4,-0.2 21.2,1.9 5.4,1.1 22.5,6.3 37.9,11.4 15.4,5.1 35.4,11.4 44.4,14.1 8.66967,2.85158 30.19488,12.77891 39.7,7.1 4.28757,-12.25021 -42.55431,-50.71813 -57.4,-70.1 -2.9,-3.8 -2.8,-5.4 0.5,-6.7 2.2,-0.8 4.4,-0.4 11.7,2.1 11.1,3.9 17.6,7.2 33.3,16.7 28.9,17.5 41.7,20.4 57.3,13.1 5.7,-2.7 9.6,-6.2 32.5,-29.2 26,-26.2 41.2,-39.7 62,-55.1 71.2,-52.7 148.1,-80 240.8,-85.5 52.69474,-3.05688 183.04146,-6.49721 329.7,111.1 11.4,9.1 13.4,10.2 16.1,9.4 3,-1 26.2,-20.9 40.8,-35.1 7,-6.8 14,-12.8 15.5,-13.4 3,-1.1 2.9,-1.4 1.1,4.8 -0.4,1.3 -3.4,7.2 -6.8,13 -6.7,11.9 -17.1,33.1 -21,43.3 -1.9,4.8 -2.5,7.6 -2,10.3 l 0.6,3.7 4.1,-0.7 c 11.1,-1.8 23.2,-8.8 45.1,-26.2 18,-14.2 45.5,-33.1 48.3,-33.2 3,0 2.9,2.9 -0.2,11.1 -6,15.7 -12.4,27.8 -28.6,53.9 -13.8,22.2 -27.2,45.2 -26.6,45.7 1.2,1.2 13.7,1.4 19.1,0.3 4.1,-0.8 14.6,-5.6 32.5,-14.7 14.6,-7.5 27.3,-13.4 28.2,-13.2 2.7,0.6 -8,21.3 -26.8,52.4 -21.4,35.2 -21.8,36.2 -21.8,45.5 0,6.8 0.6,9 6.1,23 20.8,53.1 30.3,104.2 30.3,164 0,66.5 -12.5,132.4 -35.5,186.9 -30.9,73.4 -82.9,139 -143.5,181.3 -51.3,35.7 -113.7,59.1 -180,67.3 -12.1,1.6 -69.3,2.8 -83.5,1.9 z m -413,-465.7 c 8.4,-4.3 14.5,-12.3 14.5,-19.2 0,-6.5 -6.7,-15.7 -14.4,-19.7 -7.7,-4 -22.8,-1.6 -28.9,4.6 -2.1,2.1 -3.9,5.1 -4.6,7.9 -3.2,12.8 0.7,23.4 10.4,27.9 5.7,2.7 16.2,2 23,-1.5 z"
            id="path1"
        />
    </g>
</svg>
