<?xml version="1.0" encoding="UTF-8" standalone="no"?>
<svg
    version="1.0"
    width="1324"
    height="1324"
    viewBox="117 121 1324 1324"
    preserveAspectRatio="xMidYMid"
    id="svg1"
    xmlns="http://www.w3.org/2000/svg"
    xmlns:svg="http://www.w3.org/2000/svg"
>
    <g fill="#c6d0f5" id="g1">
        <path d="M 877.7,1162.3 826.1,1070 h 99.8 z" id="path1" />
        <path
            d="m 907.45,1038.65 c -3.65,-1.45 -3.65,-21.65 -2.35,-23.25 0.8,-1 3.7,-1.4 10.8,-1.4 11.2,0 12.6,-0.6 16.6,-7.7 6.41358,-11.54444 59.8,-98.67012 59.8,-103.4 0,-1.6 -2,-6.7 -4.4,-11.4 -3.5,-6.8 -4.2,-8.8 -3.3,-10.2 1.3,-2.1 7.1,-5.6 13.2,-7.9 4.1,-1.6 4.4,-1.6 6.1,0.2 2.4,2.5 91.1,163 91.1,164.8 0,0.1866 -183.38162,1.9059 -187.55,0.25 z"
            id="path2"
        />
        <path
            d="m 655,1038.5 c 0,-2.4 16.4,-33.4 50.1,-94.5 33.5,-60.8 40.6,-73 42.3,-73 1.7,0 16.6,7.7 18.4,9.5 1.4,1.4 0,6.3 -3.4,11.2 -3.1,4.5 -3.8,6.4 -3.8,10.2 0.1,5.7 0.5,6.6 20.8,40.5 14.6,24.4 19.1,32.3 32.1,56 7.2,13.1 13.8,17.3 25.3,16 8,-0.9 8.5,-0.1 8,12.2 -0.2,8.1 -0.6,9.8 -2.2,11 -1.7,1.2 -16.2,1.4 -94.8,1.4 -51,0 -92.8,-0.2 -92.8,-0.5 z"
            id="path3"
        />
        <path d="m 998.2,786.47698 102.4,0.023 -56.1,86.3 z" id="path4" />
        <path d="M 651.2,785.03607 756.1,785 707.5,871.8 Z" id="path5" />
        <path
            d="m 788.3,827.1 c -3.4,-2.2 -6.9,-5.1 -7.9,-6.6 -1.6,-2.5 -1.6,-2.8 1.3,-8.3 28.20758,-46.68657 92.8,-156.2 92.8,-156.2 0,0 95.81802,156.82889 98.5,161.4 3.68308,6.27737 -12.81749,12.6 -18.1,12.6 -3.1,0 -6.3,-3.3 -10.4,-10.9 -4.8,-8.7 -0.8,-8.2 -69.6,-7.9 -19.93434,0 -56.05099,-1.97804 -64.5,2.9 -4.51323,3.09272 -5.2,4.9 -7.8,9.7 -4.7,8.6 -5.6,8.8 -14.3,3.3 z"
            id="path6"
        />
        <path
            d="m 498.5,462 c -18.2,-6 -34.8,-8.1 -78.5,-10 -52.4,-2.2 -49.8,-1.9 -52,-6 -0.6,-1 -1.4,-6.8 -1.9,-12.7 -1.7,-20.3 -8.7,-29.2 -28.1,-35.8 -11,-3.7 -111.6,-10.1 -118.7,-11 -6.9,-1 -7.1,-2 -2.4,-15.1 2.2,-6.4 4.1,-13 4.1,-14.8 0,-6.9 -2.8,-8.6 -42,-25.1 -33.1,-13.9 -46.7,-20.4 -51.1,-24.3 -3.6,-3.2 -9.9,-13.7 -9.9,-16.5 0,-1.3 4.7,0 21.7,6 45.5,15.7 96.6,32.4 109.5,35.7 28.8,7.4 47.3,9.4 93.3,10.1 40.4,0.6 59.6,2.2 64.8,5.4 5.7,3.5 11.6,11.4 14.8,19.8 6.3,16.4 14.6,28 29.2,41.1 3.9,3.4 20.2,15.3 36.3,26.3 18.3,12.6 27.92924,20.32924 29.7,22.1 1.49353,1.64405 2.1,2.96204 2.1,5.6 0,3.31032 -9.9,2.8 -20.9,-0.8 z"
            id="path7"
        />
        <path
            d="m 1111.3,443.9 c -4.4,-1.3 -5.5,-3.7 -3.6,-7.7 2.2,-4.6 7.1,-8.3 39.3,-30.2 15.7,-10.6 32.4,-22.2 37.1,-25.6 11.5,-8.5 22.1,-19.8 30.3,-32.5 10.3,-15.8 14.5,-21.8 20.4,-29.1 7.4,-9.2 8.2,-9.5 42.2,-10.8 56.4,-2.2 71.8,-4.3 141.8,-19.6 11.2,-2.4 20.9,-4.4 21.5,-4.4 2.1,0.1 -6.2,4.8 -24.3,13.9 -9.6,4.9 -20.3,10.9 -23.6,13.4 -8.3,6.1 -15.6,16.3 -16.1,22.5 -0.5,4.6 -0.4,4.8 6.1,11.5 16.2,16.8 12.1,18.6 -71.1,30.7 -26.5,3.8 -50.5,7.5 -53.2,8.1 -5.7,1.2 -15.6,7.2 -18.9,11.4 -3.6,4.6 -2.9,8.1 2.6,13.4 2.6,2.5 7.9,6.9 11.7,9.6 4.9,3.5 7.1,5.9 7.7,7.9 0.4,1.7 0.6,3.1 0.5,3.2 -0.1,0.2 -14,0.5 -30.7,0.7 -39.4,0.6 -61.6,3.3 -92.9,11.3 -13.4,3.4 -20.7,4 -26.8,2.3 z"
            id="path8"
        />
    </g>
</svg>
