<?xml version="1.0" encoding="utf-8"?>
<!DOCTYPE svg PUBLIC "-//W3C//DTD SVG 1.1//EN" "http://www.w3.org/Graphics/SVG/1.1/DTD/svg11.dtd">
<svg version="1.1" xmlns="http://www.w3.org/2000/svg" viewBox="-659 0 3319 3319" preserveAspectRatio="xMidYMid meet">
 <g fill="#4c4f69">
  <path d="M937.5 3203.3 c-33.5 -63.5 -61.1 -115.8 -61.3 -116.2 -0.1 -0.4 2.4 -1.8 5.5 -3 27.3 -11.1 45.9 -34.2 55.6 -69.1 5.8 -21 5.7 -16.8 5.6 -185.1 l0 -154.4 -14.8 -12.8 c-122.8 -106.7 -199 -223.8 -220 -338.2 -5.5 -30.2 -7.6 -70.5 -5.2 -99.8 11.1 -131.4 93.8 -257.9 227.9 -348.7 l12.2 -8.3 0 -145.8 0 -145.9 -122.6 0 -122.5 0 0.7 2.3 c1.6 5.2 7.9 20.7 10.9 26.7 7.5 15 15.6 22.9 33.8 33.1 13.1 7.3 21 13.1 30.6 22.3 13 12.6 20.3 23.9 23.6 36.7 3.7 13.9 1 54.3 -6.1 91.6 -11.4 60.7 -30.6 108.4 -52.3 130 -7.3 7.4 -13 10.8 -21.3 12.9 -32.5 8.4 -99.5 -29.4 -161.4 -91.1 -37.2 -37.1 -43.8 -48.5 -43.7 -75.5 0 -25.1 5.8 -50.9 18.9 -84.3 6.7 -17 8.3 -22.8 9 -33.7 0.9 -12.4 -0.9 -23.4 -8 -48.3 l-6.4 -22.2 -97.3 0 c-106.7 0 -102.9 -0.2 -124.6 6.1 -33.7 9.7 -57.9 30.1 -67.2 56.5 l-1.6 4.5 -64.5 -34.1 c-35.5 -18.7 -87.8 -46.4 -116.3 -61.4 -28.5 -15.1 -51.5 -27.6 -51.2 -27.9 0.3 -0.3 52.6 -28.1 116.3 -61.8 l115.7 -61.2 2.1 5.8 c11.6 32.1 45.3 54.4 91.4 60.6 8.3 1.1 28.5 1.4 96.6 1.4 l86.1 0 0.6 -20.7 c4.1 -143.4 73.6 -277.5 189.2 -365.3 65.8 -50 146.1 -82.6 227.8 -92.7 l13.8 -1.7 -0.4 -75 c-0.3 -83.5 -0.2 -81.8 -7.4 -104 -9.9 -30.6 -29.3 -53.5 -52.8 -62.1 -2.7 -1 -5.4 -2.1 -5.8 -2.5 -0.8 -0.7 121.1 -232 122.2 -232 0.5 0 27.4 50.7 115.8 218.1 l7.2 13.6 -6.8 2.7 c-26.4 10.4 -46.9 36.7 -55.5 71.6 -4.8 19.3 -4.8 20.2 -5.3 97.7 l-0.4 74.2 3.3 0.5 c41.5 6.8 72 15 105.8 28.3 92.2 36.4 171.1 100.7 225.2 183.8 39 59.8 63.8 126.8 73.3 197.7 1.4 10.8 2.9 30.6 4.1 56.1 l0.6 11.8 101.2 -0.4 101.1 -0.3 12.2 -2.7 c40.9 -9 67.2 -28.3 79.3 -58.2 l2.5 -6.1 114 60.3 c62.7 33.2 115 60.9 116.2 61.6 2.1 1.1 -7.9 6.6 -112.5 61.9 -63.1 33.4 -115.4 61 -116.3 61.3 -1.2 0.5 -2.1 -0.8 -3.8 -5.2 -12.5 -32.7 -47.9 -55 -95.3 -60.2 -6.2 -0.7 -46.4 -1.1 -111.7 -1.1 l-102 0 -1.6 5.8 c-22.8 81.7 -64.2 154.4 -125.1 219.7 -40.2 43.1 -85.3 77.8 -174.1 133.8 -53 33.5 -81.5 52.2 -92.5 60.9 l-3.8 3 0 284.3 0 284.4 9.6 12.8 c21.1 28 36.6 53.1 50.9 82.5 17.9 37.1 28.2 70.4 32.9 106.8 10.6 82.4 -15.9 164.8 -77 239.7 -4.6 5.7 -8.4 10.9 -8.4 11.5 0.1 2.8 8 20.1 12.4 27.2 9.8 15.6 25.3 29.2 40.4 35.1 5.8 2.3 7 3.1 6.3 4.4 -13.1 25.1 -121.5 229.8 -122 230.3 -0.3 0.3 -28 -51.3 -61.6 -114.9z m5.3 -1012.1 l-0.3 -83.7 -7.6 11.5 c-67.6 102.2 -67.6 210.8 0 313 l7.6 11.5 0.3 -84.3 c0.1 -46.4 0.1 -122 0 -168z m135.7 -396 c68.8 -36.7 114.5 -73 148 -117.7 20.3 -27.1 37.1 -58.2 49 -91 1.9 -5.3 3.5 -9.9 3.5 -10.1 0 -0.2 -50.6 -0.4 -112.5 -0.4 l-112.5 0 0 116 0 116 5.3 -2.6 c2.8 -1.5 11.5 -6 19.2 -10.2z m-135.5 -470.7 c0 -129 -0.1 -140.5 -1.6 -140.5 -0.9 0 -7.1 1.1 -13.8 2.5 -80.9 16.3 -152.6 66 -197.1 136.5 -8 12.6 -22 40.9 -26.8 54 -5.3 14.3 -10.2 31.2 -13.1 44.7 -2.8 13.1 -5.6 33 -5.6 39.4 l0 3.9 129 0 129 0 0 -140.5z m349.3 134.8 c-9.6 -107.4 -72.9 -200 -168.8 -247.3 -19.9 -9.8 -36.7 -16.2 -56.4 -21.4 l-13.1 -3.5 0 139 0 138.9 119.4 0 119.5 0 -0.6 -5.7z"/>
  <path d="M716.5 570.4 c-58.8 -6.3 -110.2 -25.5 -152.8 -57.1 l-8.8 -6.5 -87.2 -0.2 c-76.3 -0.1 -88.8 -0.4 -99.9 -1.9 -39.1 -5.2 -60.3 -13.6 -78.5 -31 -10.2 -9.7 -20.4 -26.3 -26.3 -42.3 l-2.2 -6.1 -11.7 -0.7 c-23 -1.3 -38.9 -4.9 -54.6 -12.6 -16.1 -7.8 -27.1 -17.1 -36.7 -31.3 -8.1 -11.9 -15 -29.9 -17.9 -46.2 l-1.1 -6.5 -6.8 0 c-8.5 0 -19.9 -1.6 -29.4 -4 -36.6 -9.3 -65.8 -34.6 -86.5 -74.9 -5.4 -10.6 -13.1 -27.6 -13.1 -29.1 0 -0.7 99.3 -0.9 272.1 -0.8 l272.1 0.3 4.5 14.5 c43.1 139.1 112.8 234.1 214.8 293 18.4 10.6 55.9 27.9 75.3 34.6 2.8 1 5.2 2.1 5.2 2.5 0 0.8 -29.1 4.8 -48 6.5 -19.8 1.7 -65.2 1.6 -82.5 -0.2z"/>
  <path d="M1207.5 571.4 c-2.2 -0.2 -8.9 -0.8 -15 -1.4 -16.1 -1.5 -41.5 -5.2 -41.5 -6 0 -0.4 3.5 -2 7.8 -3.5 29.6 -10.5 69.7 -30.7 96.7 -48.8 24 -16 38.6 -27.9 59.4 -48.2 45.9 -44.7 81.6 -100.3 110.8 -172.3 7.2 -17.8 24.3 -67.5 24.3 -70.6 0 -1.5 24.7 -1.6 272.5 -1.6 149.9 0 272.5 0.1 272.5 0.3 0 1.3 -6.3 15.4 -11.7 26.2 -24.3 48.4 -56.5 74.1 -101.3 81 -5.2 0.8 -12.5 1.5 -16.2 1.5 -7.6 0 -6.6 -1.1 -8.9 10.5 -1.7 8.8 -6.4 22.6 -10.4 30.6 -17.7 35.2 -48.5 52.7 -97.8 55.5 -9.6 0.6 -12 1 -12.4 2.3 -7.2 21.5 -19.8 41.1 -33.6 52.1 -9.4 7.5 -28 16.4 -41.7 19.9 -28.9 7.4 -45.1 8.3 -139.3 8 l-78.7 -0.3 -8.3 6.1 c-34.8 25.7 -74.7 43.3 -118.5 52.2 -26.2 5.4 -35.9 6.3 -71.7 6.6 -18.1 0.1 -34.8 0.1 -37 -0.1z"/>
  <path d="M674 153.3 l0 -150.6 8.1 11.9 c38.6 56.5 77.8 89.3 119.9 100.4 11.9 3.1 34 3.8 47 1.6 36 -6.3 72.8 -28.2 113 -67.3 8.2 -7.9 19.6 -19.8 25.5 -26.3 5.9 -6.6 11 -12 11.4 -12 0.4 0 4.5 4.4 9.1 9.7 25.1 28.6 55.2 55.4 80 71.1 82.2 52.1 157.2 26.5 228.2 -78.2 l6.8 -10 0 150.2 0 150.2 -324.5 0 -324.5 0 0 -150.7z"/>
 </g>
</svg>
