<?xml version="1.0" encoding="UTF-8" standalone="no"?>
<svg
    version="1.0"
    viewBox="190 204 668 668"
    preserveAspectRatio="xMidYMid"
    xmlns="http://www.w3.org/2000/svg"
    xmlns:svg="http://www.w3.org/2000/svg"
>
    <g fill="#4c4f69" id="g1">
        <path
            d="m 535.5,870.65 c -2.15,-0.15 -3.05,-0.5 -4.1,-1.5 -1.85,-1.8 -1.75,-2.8 0.35,-3.8 0.95,-0.45 1.75,-1.15 1.75,-1.5 0,-1.35 -3.75154,-2.15032 -25.4,-0.3 -5.4,0.5 -12.75,1.15 -16.3,1.45 -7.6,0.7 -18.6,0 -23.55,-1.5 -9.5,-2.85 -13.3,-3.95 -15.75,-4.55 -3.25,-0.75 -13.75,-0.85 -15.45,-0.1 l -1.2,0.5 1.55,1.4 c 0.9,0.8 1.6,1.55 1.6,1.75 0,0.6 -9.95,1.25 -18,1.2 -7,-0.05 -8.15,-0.2 -11.75,-1.4 -4.65,-1.6 -8.75,-3.75 -16.95,-9 -22.75,-14.6 -54.25,-40.3 -57.75,-47.15 -0.55,-1.15 -1.05,-2.8 -1.05,-3.6 0,-1 -0.2,-1.45 -0.6,-1.3 -0.35,0.15 -2.1,-1.25 -3.9,-3.05 -1.8,-1.8 -5.2,-4.6 -7.65,-6.25 -2.85,-1.95 -5.3,-4.15 -7.05,-6.35 -1.45,-1.85 -8.85,-9.55 -16.4,-17.1 -10.7,-10.7 -14.05,-14.4 -15.2,-16.6 l -1.45,-2.85 0.95,-1.75 c 0.5,-0.95 0.8,-1.95 0.6,-2.2 -0.35,-0.6 -4.25,-1.6 -6.2,-1.6 -1.4,0 -4.3,-0.95 -9.2,-3.15 -1.85,-0.8 -3.9,-2.65 -8.85,-8.05 -3.55,-3.9 -7.25,-8.05 -8.15,-9.3 -0.95,-1.25 -3.55,-4.6 -5.75,-7.5 C 231.2,697.95 225.9,687.25 224.05,674.25 222.5,663.5 221.7,661 219.8,661 c -1.5,0 -1.85,-0.85 -4,-10.25 -6.15,-26.8 -9.6,-59.7 -9.5,-90.75 0.05,-13.05 0.05,-13.3 1.35,-16.5 1.7,-4.25 2.35,-9.85 2.35,-20 0,-6.45 0.2,-9.1 1,-12.2 0.85,-3.5 0.9,-5.15 0.65,-13.75 -0.4,-13.55 1,-25.6 4.9,-42.8 4.1,-18.15 8.8,-32.75 10.45,-32.75 0.3,0 0.5,0.7 0.5,1.5 0,2.7 0.75,1.6 1.65,-2.35 0.45,-2.15 0.9,-4.3 0.95,-4.8 0.25,-1.55 1.15,-0.95 1.3,0.9 0.15,1.6 1.05,2.55 1.15,1.15 0,-0.35 0.1,-2.55 0.2,-4.9 0.1,-2.65 0.55,-5.35 1.15,-7.1 1.6,-4.45 5.45,-11.6 7.55,-14 2.05,-2.3 6.5,-10.75 7.55,-14.25 0.65,-2.2 1.2,-2.9 3.65,-4.7 0.75,-0.55 1.35,-1.4 1.35,-1.85 0,-1.65 1.9,-3.95 4.15,-5 2.45,-1.15 3.85,-3.6 3.85,-6.9 0,-2.65 0.7,-3.55 3.1,-3.95 6.5,-1.1 12.1,-5.5 13.85,-10.9 0.7,-2.1 2.6,-3.4 8.15,-5.6 3.9,-1.55 7.95,-5 12.5,-10.65 3.65,-4.6 5.3,-6.1 6.7,-6.1 1.6,0 5.05,-2.5 10.55,-7.65 5.2,-4.8 17.65,-18.05 20.05,-21.3 1.9,-2.5 2.4,-2.75 6.35,-2.75 3.4,-0.05 3.8,-0.2 13.25,-4.85 8.75,-4.35 14.75,-8.1 17.1,-10.75 0.45,-0.55 1.35,-1.95 2,-3.15 1,-1.9 1.5,-2.35 3.4,-2.8 7.61289,-2.00339 9.19208,-5.69518 23.3,-13.2 2.55,-0.7 3.85,-2.1 5.15,-5.6 1.2,-3.15 1.35,-3.25 7.85,-5.4 2.5,-0.8 5.95,-2.25 7.75,-3.25 11.5,-6.3 38.65,-10.6 74.45,-11.8 21.4,-0.7 23.75,-0.9 25.25,-2.3 0.65,-0.6 1.55,-2.3 1.95,-3.75 0.9,-3.35 1.1,-15.2 0.25,-14.65 -0.45,0.25 -0.5,-0.2 -0.2,-1.6 0.45,-2.45 1.2,-3.95 1.25,-2.4 0,0.6 0.65,3.4 1.5,6.25 1.25,4.35 1.45,5.7 1.2,8.5 -0.4,3.8 0.35,6.55 1.95,7.7 0.7,0.5 2.25,0.75 4.35,0.75 6.2,0 15.2,2 26.5,5.85 8.3,2.8 12.8,4.65 23.8,9.7 4.7,2.15 13.6,6.05 19.75,8.65 15.3,6.4 26.6,11.35 30.2,13.15 1.65,0.85 4.9,2.15 7.15,2.9 4.85,1.6 6.7,1.5 9.8,-0.6 1.65,-1.1 2.75,-1.4 5.65,-1.55 4.7,-0.25 8.55,1 6.65,2.15 -0.85,0.5 -0.55,1.15 0.65,1.5 0.6,0.2 1.65,0.85 2.35,1.5 1.7,1.55 3.2,2.25 4.75,2.25 1.8,0 4.2,1.35 4.7,2.65 0.25,0.6 0.25,2.25 0,3.6 -0.75,4.65 -0.85,4.5 3.95,7.6 2.4,1.55 5.15,3.35 6.1,4 2.35,1.5 8.95,7.05 13.1,10.95 3.55,3.3 13.75,11.2 18.55,14.35 4.6,2.95 8.65,4.85 11.25,5.2 3.15,0.4 5.7,1.75 8.75,4.55 2.5,2.35 9.75,11.1 14.9,18.1 1.5,2.05 4.45,6 6.5,8.75 2.05,2.75 5.05,7 6.75,9.5 2.1,3.15 4.1,5.4 6.65,7.45 2,1.65 4.05,3.6 4.55,4.4 1.2,1.95 6.85,8.75 9.3,11.15 3.9,3.85 9.25,12.85 11.75,19.95 0.8,2.2 1.6,4.15 1.85,4.4 0.25,0.25 1.4,-0.35 2.65,-1.4 2.75,-2.3 4.1,-2.8 5.75,-2.2 1.95,0.75 1.2,2.65 -2.35,6 -1.6,1.5 -2.95,3.05 -2.95,3.35 0,0.95 3,1.7 8.5,2.1 5.55,0.45 7.25,1 10.5,3.6 0.95,0.75 3.6,2.3 5.9,3.5 4.2,2.1 6.85,4.6 7.45,6.85 0.2,0.9 -0.35,2.1 -2.3,4.85 -1.4,2 -2.8,4.3 -3.15,5.1 -0.35,0.85 -0.7,5.6 -0.9,12.15 -0.3,10.1 -0.4,11 -1.7,14.5 -0.75,2.05 -1.6,4.75 -1.8,6 -0.6,3.25 -1.75,6.1 -3.75,9.55 l -1.75,3 v 10.35 c 0,9.8 0.25,13.45 1.5,22.85 0.3,2.2 0.7,7.6 0.95,12 0.25,4.4 1.05,12.4 1.7,17.75 0.7,5.35 1.4,11.1 1.6,12.75 0.15,1.65 0.45,3.75 0.6,4.65 0.15,0.95 0.05,1.6 -0.25,1.6 -0.5,0 -1.4,-2.45 -3.85,-10.6 -0.7,-2.45 -1.5,-4.4 -1.8,-4.4 -0.35,0 -0.4,1.75 -0.2,5.15 0.15,2.8 0.5,11.95 0.75,20.35 0.7,20.2 1.5,29.25 3.45,36.5 1.95,7.5 5.4,17.95 8.05,24.5 1.55,3.9 2.1,5.95 2.15,8 0,3.1 -1.35,6.7 -3.6,9.5 -1.95,2.45 -2.35,4.5 -1.3,6.75 2.2,4.6 6.9,1.3 7.5,-5.25 0.45,-4.5 1.35,-4.65 2.8,-0.5 1.25,3.7 0.6,7.25 -1.85,10 -2.25,2.5 -5.25,3.5 -10.5,3.5 -3.8,0 -4.1,0.05 -4.35,1.15 -2.1,8.65 -2.2,10.2 -1.1,12.4 0.95,1.8 0.6,2.65 -2.85,6.35 -2.4,2.55 -4.9,7.2 -6.95,12.8 -4.1,11.45 -8.55,22.3 -9.2,22.3 -0.15,0 -0.6,-0.85 -1,-1.85 -0.9,-2.1 -1.15,-1.95 -3,1.6 -6.3,11.85 -37.4,48.4 -37.4,48.4 -15.3,15.2 -22.35,21.45 -28.75,25.45 -8.45,5.25 -21.05,12.7 -24.25,14.2 -1.65,0.85 -2.8,1.65 -2.65,2 0.3,0.8 -0.95,1.25 -1.6,0.6 -0.75,-0.75 -2.05,2 -2.55,5.6 -0.35,2.6 -0.7,3.35 -2.35,5.05 -2.95,3.1 -8.25,6.9 -10.2,7.4 -0.95,0.25 -5.1,0.6 -9.25,0.7 -4.1,0.15 -7.9,0.45 -8.35,0.6 -0.5,0.2 -1.35,1.6 -1.9,3.1 -3.15,8.5 -4.25,12.95 -3.55,14.8 0.8,2.1 -0.15,2.65 -2,1.2 -2.3,-1.7 -6.2,-2.95 -8.8,-2.8 -1.15,0.1 -2.25,0.05 -2.4,-0.15 -0.15,-0.15 0,-1.35 0.3,-2.75 0.7,-3 0.2,-7.1 -0.9,-7.5 -0.45,-0.15 -2.4,0.25 -4.35,0.9 -1.95,0.65 -4.35,1.2 -5.3,1.25 -1.9,0.1 -3.85,0.7 -18.5,5.45 -23.3,7.6 -43.4,13.65 -46.75,14 -0.25,0 -1.45,0.3 -2.6,0.65 -1.15,0.35 -3.15,0.65 -4.5,0.7 -1.35,0.05 -2.9,0.45 -3.5,0.95 -0.65,0.45 -2.1,0.95 -3.25,1.15 -2.8,0.4 -25.5,2.3 -26.15,2.2 -0.25,-0.05 -1.75,-0.15 -3.25,-0.25 z m -13.75,-25.4 c 2.2,-0.4 5.45,-1 7.25,-1.3 3.6,-0.5 8.8,-2.1 11.5,-3.5 1.8,-0.95 12.65,-3.25 22.25,-4.7 10.2,-1.55 32.95,-5.75 43.5,-8.05 10.05,-2.2 13.75,-3.25 13.75,-3.95 0,-0.2 -2.15,-2.9 -4.75,-6 -4.75,-5.65 -7.95,-8.75 -9.1,-8.75 -2.2,0 -5.65,-5.85 -5.65,-9.65 -0.05,-3.2 -4.2,-6.1 -5.2,-3.6 -0.5,1.35 -1.55,0.8 -3.7,-1.95 -1.95,-2.55 -2.1,-2.95 -2.1,-5.9 v -3.15 l -1.35,1.65 -1.3,1.7 -3.3,-3.2 c -1.8,-1.75 -4.6,-4.05 -6.15,-5.1 -3.85,-2.55 -8.1,-6.9 -10.3,-10.55 -2.2,-3.75 -3.65,-5.6 -9.5,-12.5 -6.35,-7.5 -9.05,-9.15 -12.35,-7.65 -0.95,0.45 -1.55,0.4 -2.45,-0.1 -1.1,-0.55 -1.75,-0.3 -7.65,3 -7.05,4 -16.75,10.5 -27.15,18.25 -7.35,5.45 -18.2,13 -22.5,15.7 -3.9,2.45 -11.75,8.25 -15.25,11.35 -2.95,2.5 -3.05,2.75 -3.95,6.55 -1.65,7.25 -2.25,8.55 -5.65,12.3 -3.2,3.6 -6.65,9 -6.65,10.5 0,1 0.45,1.1 16.1,5.05 16.7,4.2 20.1,5.65 18.2,7.7 -0.45,0.5 -0.8,1.2 -0.8,1.5 0,0.7 2.5,2.6 5.75,4.3 l 2.5,1.35 11,-0.25 c 7.2,-0.15 12.4,-0.5 15,-1.05 z M 394.55,799.7 c 2.9,-1.5 8.7,-5.6 10.25,-7.3 0.85,-0.9 2.05,-2.5 2.65,-3.5 1.2,-2.05 3.6,-3.05 6,-2.6 0.75,0.15 2.65,-0.1 4.2,-0.55 2.75,-0.8 2.85,-0.85 3.6,-3.35 1.95,-6.55 2.9,-17.2 2.95,-32.9 v -12.25 l -1.9,-6 c -1.1,-3.3 -2.15,-6.3 -2.45,-6.6 -0.3,-0.45 -0.3,-0.65 0.1,-0.65 0.3,0 0.55,-0.8 0.55,-1.85 0,-1.05 0.45,-3.7 0.95,-5.85 l 0.95,-4 -2.2,-2 c -2.9,-2.75 -4.7,-5.25 -4.7,-6.65 v -1.15 l 2,1 c 1.05,0.55 2.9,1 4,1 h 2.05 l -0.3,-4.85 c -0.2,-2.7 -1,-8.95 -1.8,-13.9 -0.8,-4.95 -1.5,-10.35 -1.55,-11.95 -0.15,-2.95 -0.15,-2.95 -2.15,-3.7 -1.15,-0.4 -3.7,-0.7 -6,-0.7 -4.25,0.05 -14.1,1.25 -17.5,2.15 -5.8,1.6 -10.35,2 -26.5,2.45 -21.3,0.55 -24.75,1 -36.6,4.6 -1.7,0.5 -4.15,3 -4.15,4.15 0,1.5 -5.6,6.7 -8.85,8.35 -2.95,1.45 -3.8,1.6 -8.9,1.8 -3.15,0.15 -6.25,0.1 -6.95,-0.1 -2.2,-0.55 -1.45,-1.3 1.35,-1.3 1.4,0 3.15,-0.3 3.85,-0.65 1.4,-0.7 3.95,-4.2 4,-5.5 0,-1.1 -4.2,-5.65 -6.1,-6.65 -0.75,-0.4 -1.8,-0.7 -2.4,-0.7 -1.8,0 -1.05,-1 1,-1.3 1.1,-0.2 2.35,-0.6 2.85,-0.95 0.75,-0.55 0.75,-0.65 -0.25,-1.2 -1.15,-0.6 -5.9,-1.35 -11.9,-1.85 -4,-0.35 -6.4,0.2 -9.3,2.25 -2.8,1.95 -2.7,2.1 2.25,3.05 2.65,0.55 3.95,1.5 1.95,1.5 -1.35,0 -8,2.25 -11.25,3.75 -1.6,0.75 -3.55,2.05 -4.4,2.8 -1.3,1.2 -1.5,1.65 -1.2,3.05 0.9,4.5 7.75,15.9 12.35,20.7 2.25,2.3 2.4,2.65 1.7,3.35 -1.55,1.55 -1.05,2.45 3.6,6.35 3.2,2.65 3.9,2.75 4.2,0.55 0.15,-1.15 0.25,-1.1 3.9,1.35 7.15,4.85 24.3,21.15 25.2,23.9 0.35,1.15 6.6,5.9 15.3,11.65 23.5,15.55 29.85,20.35 38.75,29.3 3.85,3.85 7.75,8 8.7,9.15 1.65,2.1 5.25,5.1 6.15,5.1 0.25,0 1.15,-0.35 1.95,-0.8 z m 245.9,-6.2 c 0.95,-0.25 1.9,-0.75 2.15,-1.1 -0.29086,-30.16176 3.64613,-56.13202 1.4,-73.5 -0.15,-3.5 -0.5,-6.6 -0.75,-6.85 -0.3,-0.25 -0.95,-0.55 -1.5,-0.65 -1.1,-0.2 -1.15,-0.85 -0.3,-5.65 1.8,-10.3 1.8,-17.9 0,-23.35 -0.65,-1.95 -0.95,-4.3 -0.95,-7.3 0,-4.4 -0.85,-7.85 -2.2,-8.7 -1.1,-0.75 -3.6,-0.35 -6.2,0.95 -2.6,1.3 -3.25,1.85 -6.3,5.1 -0.8,0.85 -2.45,1.9 -3.75,2.35 -4.4,1.5 -6.3,2.6 -8.95,4.95 -2.45,2.2 -2.65,2.55 -2.35,3.95 0.75,3.75 0.7,3.9 -2.5,5.85 -1.65,1 -3.8,2.05 -4.8,2.4 -4.7,1.55 -7.45,4.6 -7.45,8.25 0,2.35 -1.25,3.55 -4.15,3.95 -1.3,0.2 -4.1,1.2 -6.2,2.3 -3.5,1.7 -4.9,2.95 -12.55,10.75 -7.55,7.75 -8.6,9 -8.6,10.45 0,3.6 4.9,9.5 16.45,19.85 3.5,3.15 5,4.85 5.8,6.75 2.45,5.45 20.15,20.25 25.75,21.5 1.5,0.35 4.5,3.3 4.5,4.45 0,1 9.35,8.9 13.25,11.15 4.7,2.7 6.75,3.15 10.2,2.15 z m 50.15,-3.8 c 2.3,-1.05 5.05,-2.5 6.15,-3.25 1.1,-0.7 5.95,-3.6 10.75,-6.4 9.75,-5.7 12.85,-7.95 22.55,-16.1 8.6,-7.25 27.85,-26.5 31.7,-31.7 3.45,-4.6 6.45,-8.4 9.6,-12.05 2.1,-2.5 2.65,-3.7 1.65,-3.7 -2.3,0 -15.1,8.4 -17.65,11.6 -0.8,1.05 -2.2,2.1 -3.05,2.35 -3.05,0.9 -7.3,1.7 -7.55,1.45 -0.45,-0.45 5.35,-7.9 10.9,-14 7.6,-8.3 8.05,-9.25 15.45,-29.9 0.8,-2.35 3.92142,-5.43046 10.45,-6.1 2.95,-0.3 9.2,-3.3 9.2,-4.4 0,-0.6 -0.95,-0.8 -4.6,-0.9 0,0 -8.35,0.3 -11.1,0.5 -5.46456,-1.03933 -14.68937,0.57703 -22.35,3.45 -1.2,0.5 -3.35,1.7 -4.8,2.65 -1.45,1 -2.85,1.8 -3.05,1.8 -0.25,0 -1.2,0.35 -2.15,0.8 -0.95,0.45 -1.85,0.7 -2,0.55 -0.15,-0.15 -0.05,-1.1 0.25,-2.1 0.8,-2.85 -1,-5.75 -3.55,-5.75 -2,0 -6.95,1.7 -11.65,4 -5,2.5 -9.85,3.7 -19.95,5 -9.7,1.25 -13.7,0.8 -8.15,-1 1,-0.3 3.15,-1.35 4.75,-2.3 3.35,-2 6.95,-3.2 9.8,-3.2 2.05,0 7.75,-0.8 9.45,-1.3 0.45,-0.15 0.85,-0.5 0.85,-0.8 0,-0.3 -1.7,-0.4 -5.1,-0.15 -3.55,0.25 -5.65,0.15 -6.65,-0.25 -2.3,-0.9 -14.5,-2.5 -19.05,-2.5 -2.25,0 -6.4,-0.25 -9.25,-0.6 -2.85,-0.35 -6.9,-0.6 -8.95,-0.65 h -3.75 l 0.15,2.75 c 0.05,1.5 0.5,3.7 0.95,4.85 0.9,2.4 0.7,4.95 -0.5,7.65 -2.2,4.75 -6.85,12.75 -7.5,12.9 -1.55,0.3 -0.05,32 2.4,50.35 0.65,4.95 1.45,13.3 1.75,18.5 0.5,8.4 0.7,9.7 1.65,11.1 0.6,0.9 1.25,1.65 1.45,1.65 0.2,0 1.4,-1.55 2.65,-3.45 2.35,-3.55 10.15,-11.15 19.7,-19.2 5.35,-4.45 13.5,-10.1 13.95,-9.6 1,1 -5.4,9 -9.35,11.7 -3.25,2.25 -6.95,6.25 -10,11 -2.65,4.1 -2.65,4.75 0,3.5 2.45,-1.2 6.95,-1.85 6.95,-1 0,0.3 -1.05,1.3 -2.35,2.2 -4.45,3.1 -8.4,6.4 -9.5,7.95 -1.25,1.8 -1.5,3.65 -0.5,4.1 1.4,0.6 5,-0.2 8.95,-2 z M 469.55,748.9 c 8.55,-4.35 13.85,-8.1 26.5,-18.75 4.25,-3.55 9.15,-7.55 10.85,-8.85 4.65,-3.55 5.55,-5.95 3.6,-9.8 -0.55,-1.1 -3.95,-4.85 -7.5,-8.35 -4.6,-4.45 -6.5,-6.65 -6.5,-7.45 0,-1.2 -3.45,-5.6 -8.95,-11.5 -3.4,-3.6 -6.7,-5.6 -7.85,-4.65 -0.9,0.75 -1.95,-0.05 -3.25,-2.7 -2.7,-5.2 -15.35,-6.55 -31.1,-3.3 -2.8,0.6 -5.5,1.25 -5.95,1.5 -1.1,0.6 -1.15,3 -0.2,9.75 0.4,2.7 1.1,9 1.55,13.95 0.7,7.65 1.15,10.15 2.05,11.2 0.1,0.1 1.4,-0.55 3,-1.4 3.15,-1.8 3.9,-1.7 2.3,0.35 -1.95,2.4 -2.35,3.75 -2.25,7.85 0.1,6.5 3.45,23.15 6.45,32.4 1.55,4.7 17.25,-0.25 17.25,-0.25 z m 310.9,-39.1 c 7.9,-3.1 11.4,-5.1 13.1,-7.45 2.25,-3 5.95,-11 6.25,-13.5 0.4,-3.35 -0.1,-3.6 -3.85,-1.95 -1.75,0.8 -4.1,1.75 -5.2,2.1 -3.05,1 -4.55,2.35 -6.3,5.7 -2.1,3.95 -7.35,10.7 -10.1,12.95 -2,1.6 -6.35,6.8 -6.35,7.5 0,0.2 1.75,-0.55 3.9,-1.6 2.1,-1.05 5.95,-2.75 8.55,-3.75 z m -537.4,-4.1 c 0.2,-0.8 0.35,-3.6 0.4,-6.2 0.05,-5.3 0,-5.45 -5.45,-13.1 -1.25,-1.75 -2.5,-3.7 -2.85,-4.4 -0.85,-1.75 -1.7,-2.75 -3,-3.4 -1.65,-0.9 -1.7,-0.8 -0.6,2 1.25,3.15 0.7,4 -1.55,2.4 -1,-0.7 -1.75,-0.95 -2.05,-0.65 -0.65,0.65 4.75,11.9 8.65,18.1 4.6,7.3 5.8,8.3 6.45,5.25 z m 529.45,-4.05 c 1.8,-0.85 2.65,-1.75 4.1,-4.25 2.25,-3.9 5.4,-10.75 5.05,-11.05 -0.55,-0.6 -5.55,2.25 -7.2,4.1 -2.15,2.4 -5.35,8.6 -5.8,11.2 -0.3,2.1 -0.6,2.1 3.85,0 z m -235,0.85 c 2.45,0 13.15,-6.25 21.7,-12.75 6.25,-4.7 18,-15.9 20.1,-19.15 1.75,-2.75 1.3,-3.3 -3.8,-4.35 -3,-0.65 -4.4,-0.7 -7.2,-0.25 -4.25,0.65 -5.2,1.15 -5.4,2.85 -0.15,1.2 -0.45,1.45 -2.4,1.75 -1.25,0.25 -6.65,0.45 -12,0.5 -7.55,0.1 -10,0 -10.95,-0.55 -1.1,-0.6 -1.15,-0.75 -0.4,-1.3 0.5,-0.35 1.8,-0.5 3.2,-0.4 1.75,0.15 2.7,0 3.4,-0.6 0.95,-0.75 0.7,-0.8 -4,-0.5 -2.7,0.15 -6.55,0.65 -8.5,1.15 -2.65,0.65 -5.7,0.85 -12.6,0.85 h -9.15 l 3.5,3.5 c 2.65,2.65 3.5,3.85 3.5,4.9 0,2.45 1.3,4.75 3.15,5.5 1.4,0.6 16.95,18.85 17.85,18.85 z m 126.3,-6.05 c 0.35,-1.95 -0.7,-4.45 -1.8,-4.45 -0.55,0 -0.65,6.55 -0.15,8.45 0.3,1.1 0.3,1.1 1,-0.45 0.35,-0.9 0.8,-2.5 0.95,-3.55 z m 147.2,-2.7 c 0.7,-0.35 1.75,-1.2 2.35,-1.85 1.35,-1.45 6.85,-11.85 6.5,-12.25 -0.4,-0.35 -5.95,3.9 -9.25,7.05 -3.1,2.95 -4.1,4.65 -4.1,6.8 0,1.5 0.05,1.55 1.65,1.25 0.85,-0.2 2.15,-0.65 2.85,-1 z M 298.9,655 c 3.15,-0.4 10.95,-1.05 22.25,-1.8 4.7,-0.3 4.9,-0.3 5.2,0.75 0.35,1.35 2.4,1.4 3.15,0.1 0.4,-0.8 1.3,-1 4.85,-1.3 6.05,-0.5 16.5,-2.05 21.65,-3.3 5.4,-1.25 13.4,-2.4 19.5,-2.7 5.3,-0.25 20.4,-2.2 29.35,-3.75 3.25,-0.55 7.85,-1.25 10.25,-1.5 2.45,-0.25 4.6,-0.6 4.9,-0.75 0.65,-0.4 0.6,-11 -0.05,-14.75 -0.25,-1.5 -0.65,-5.9 -0.9,-9.8 -0.5,-7.8 -0.95,-9.1 -3.8,-11.4 -1.75,-1.35 -1.95,-1.4 -4,-0.8 -4.35,1.2 -7.65,-1.1 -8.3,-5.75 -4.36196,-18.82001 -21.71962,-23.48378 -28.9,-29.85 -2,-1.85 -3.85,-3.4 -4.05,-3.4 -0.25,0 -2.75,2.3 -5.6,5.15 -2.85,2.8 -7.5,7.1 -10.4,9.5 -5,4.2 -5.35,4.4 -7.1,4.1 -1.05,-0.2 -2.1,-0.2 -2.35,0 -0.95,0.55 0.05,1.75 1.45,1.75 3.4,0 2.4,2.4 -1.9,4.5 -3.8,1.9 -7.2,5.15 -12.1,11.5 -1.8,2.35 -5.25,6.4 -7.75,9 -11.95,12.65 -15.45,16.9 -16.6,20.05 -0.6,1.7 -1.6,3.6 -2.2,4.25 -0.65,0.7 -1.15,1.85 -1.2,2.6 0,1.2 -0.5,1.6 -4.85,3.75 -5.1,2.5 -6.45,4.05 -3.25,3.8 0.85,-0.1 1.65,0 1.75,0.2 0.25,0.65 -1.85,4.9 -3.6,7.35 -0.95,1.35 -1.6,2.55 -1.45,2.7 0.45,0.4 2.2,0.35 6.05,-0.2 z m 232.05,-4.05 3.2,-0.6 -1.4,-0.75 -1.4,-0.7 1.7,-0.85 c 1.4,-0.65 3.35,-0.8 10.95,-0.75 9.2,0.05 12.75,0.5 24.75,3.2 2.65,0.6 24.7,0.6 28.4,0 1.55,-0.25 4.65,-1.25 6.8,-2.25 2.15,-0.95 5.05,-1.9 6.35,-2.05 3.5,-0.5 5.85,-1.85 10.35,-5.9 6.4,-5.75 12.2,-15 13.3,-21.15 0.4,-2.15 0.4,-4.75 0.05,-9.2 -0.9,-10.45 -5.2,-38.25 -8.85,-57.7 -1.05,-5.35 -1.2,-23.7 -0.25,-26.35 0.75,-2.1 2.1,-2.55 2.1,-0.7 0,0.65 0.3,3.05 0.7,5.35 0.75,4.6 1.45,10 2.3,17.7 0.7,6.3 1.15,8.05 3.6,15.65 1.2,3.75 2.2,6 2.5,5.8 0.35,-0.25 0.45,-3.2 0.25,-9.15 -0.35,-9.55 -0.9,-13.2 -2.2,-14.65 -0.85,-0.95 -0.8,-3.85 0.35,-14.15 0.9,-8.7 -0.25,-25.5 -2.5,-35.25 -0.5,-2.35 -1.1,-5.55 -1.25,-7.1 -0.45,-4.2 -2.7,-8.25 -7.6,-13.55 -2.3,-2.5 -4.45,-4.7 -4.75,-4.8 -0.25,-0.1 -0.6,0.3 -0.75,0.9 -0.35,1.45 -1.45,1.3 -1.85,-0.2 -0.45,-1.75 -9.55,-10.9 -12.15,-12.2 -4.35,-2.15 -11.85,-3.45 -26.55,-4.55 -9.5,-0.7 -22,0.05 -24.85,1.5 -2.45,1.25 -4.1,1.25 -8.55,0 -2.3,-0.6 -6.1,-1.1 -10.85,-1.3 0,0 -12.2,-0.65 -14.05,-0.7 -4.05,-0.15 -3.9,-0.4 -2.55,3.45 4.2,12.4 16.75,29.05 26.8,35.55 1.75,1.15 3.8,2.2 4.55,2.35 1.95,0.4 2.75,1.45 2,2.7 -0.55,0.85 -0.45,1.05 0.75,1.5 3.55,1.35 3.85,1.65 3.95,3.6 0.1,1.05 0.85,3.1 1.65,4.55 0.85,1.45 1.55,3.4 1.55,4.3 0,1.15 0.45,2.05 1.7,3.3 1.4,1.4 2.05,1.7 3.9,1.7 1.2,0 2.7,0.35 3.3,0.8 0.95,0.65 1.1,1.2 1.1,4.25 0,3.05 0.15,3.65 1.25,4.7 0.8,0.85 1.75,1.25 3,1.25 1.45,0 1.75,0.2 1.75,1.05 0,0.55 0.55,1.75 1.2,2.6 2.05,2.8 7.3,15.1 7.3,17.2 0,0.4 -0.65,0.65 -1.85,0.65 -4.85,0.05 -6.1,2.7 -6.15,13.25 -0.05,11.15 -2.1,18.8 -6.5,23.95 -1.4,1.6 -2.75,3.4 -3.05,4 -2.65,5.05 -7.2,12.1 -9.65,14.65 -1.6,1.75 -4.8,4.55 -7.1,6.25 -2.3,1.7 -4.1,3.2 -3.95,3.3 0.45,0.5 4.9,-1.45 7.85,-3.45 1.75,-1.2 4.95,-3.95 7.2,-6.2 3.3,-3.3 4.2,-4.55 5.1,-7.05 1.45,-4.1 3.75,-7.15 5.55,-7.5 2,-0.4 5.05,-3.05 5.9,-5.05 0.35,-0.95 1.05,-1.8 1.55,-1.95 2.75,-0.85 3.05,-1.65 1.35,-3.45 -1.45,-1.6 -1.55,-2.25 -0.5,-4.3 0.95,-1.8 3.5,-3.45 5.35,-3.45 2.45,0 3.8,3.75 2.9,7.85 -0.95,4.25 -2.95,7.35 -9.25,14.65 -7.5,8.7 -15.55,16.25 -19.55,18.35 -1.65,0.8 -5.4,2.85 -8.45,4.45 l -5.5,2.95 h -5 c -4.45,0 -5.35,-0.15 -8.1,-1.45 -4.3,-1.95 -18.38304,-10.98664 -21.7,-13.85 -7.65,-6.6 -17.7,-12.6 -22.95,-13.7 -3.75,-0.8 -7.65,-3.3 -12.25,-7.95 -5,-5 -7.35,-8.9 -9.3,-15.25 -1,-3.35 -1.05,-4.4 -0.8,-10.35 0.45,-9.4 3.35,-22.9 6.2,-28.35 0.75,-1.5 3.9,-4.75 7.6,-7.75 2.05,-1.75 2.45,-1.85 6.75,-2.15 4.65,-0.35 5.7,-0.1 8.9,2.15 0.45,0.35 1,0.45 1.2,0.25 0.55,-0.5 -3.15,-4.15 -5.25,-5.25 -0.95,-0.5 -1.8,-1.15 -1.9,-1.45 -0.25,-0.75 2.35,-1.55 6,-1.95 3.1,-0.3 3.1,-0.3 4.85,1.6 0.95,1 2.9,2.35 4.3,3 2.2,0.95 2.6,1.4 2.9,2.85 0.15,0.9 1,2.3 1.8,3.1 2.25,2.15 3.05,5.25 3.2,12.6 0.2,6.4 0.65,8.7 1.95,9.5 0.75,0.45 4.25,5.5 5.55,8 1.25,2.5 1,3.05 -1.95,4.5 -5.05,2.5 -5.55,6.3 -1.35,10.85 1.6,1.8 2.8,3.75 3.6,5.85 2.5,7 5.25,10.95 8.25,11.95 2.35,0.75 9.5,-0.1 12.2,-1.5 1.35,-0.65 2.4,-1.7 3.05,-3 0.55,-1.05 2,-2.75 3.25,-3.7 3.35,-2.55 10.1,-10.4 11.3,-13.15 0.6,-1.35 1.2,-3.95 1.35,-6 0.25,-4 -0.7,-15.85 -1.45,-17.2 -0.3,-0.6 -1.55,-1.05 -4.05,-1.45 -6.1,-0.95 -6.1,-0.95 -6.4,-6.8 -0.2,-3.75 -0.5,-5.35 -1.2,-6.5 -1.4,-2.15 -4.7,-6.1 -7.5,-8.95 -1.35,-1.35 -3.55,-3.85 -4.95,-5.5 -4.75,-5.75 -24.85,-27.6 -36.1,-39.25 -5.15,-5.35 -6.95,-7.65 -8.75,-10.95 -1.25,-2.35 -2.85,-4.65 -3.55,-5.2 l -1.3,-0.95 -3.5,1.75 c -5.35,2.7 -15.9,10.15 -20.3,14.3 -1.05,1 -2.25,2.5 -2.6,3.4 -0.5,1.15 -1.45,2 -3.35,2.95 -3.5,1.75 -10.4,7.15 -12.6,9.85 -3.7,4.5 -3.9,6.45 -1.75,16.8 0.5,2.55 0.95,6.1 0.95,7.85 0,1.8 0.2,5.3 0.5,7.85 0.25,2.55 0.75,9.45 1,15.35 0.3,5.9 0.85,14.15 1.25,18.25 0.45,4.15 1,12.8 1.25,19.25 1.5,36.85 1.15,34.4 6.05,41.7 2.35,3.45 3.3,5.5 4.5,9.65 0.85,2.85 1.4,5.35 1.25,5.5 -0.45,0.5 -6.15,-2.35 -7.4,-3.7 -1.6,-1.7 -1.95,-1.4 -1.15,1.15 1.25,4.1 5.55,8.7 13.65,14.4 l 4,2.8 3.05,-0.3 c 1.7,-0.2 3.05,-0.45 3.05,-0.55 0,-0.1 -2.4,-2.85 -5.3,-6.05 -2.95,-3.2 -6.2,-7.2 -7.25,-8.8 -1.9,-2.85 -2.45,-4.8 -1.45,-4.8 0.85,0 6.9,4.5 10.6,7.95 5.05,4.65 15.65,12.15 20.75,14.6 2.3,1.15 5.4,2.25 6.8,2.5 3.75,0.6 33.45,0.15 37.3,-0.6 z M 714,650 c 2.9,-0.6 5.85,-1.4 6.6,-1.75 1.5,-0.75 1.9,-0.55 1.9,1 0,3.3 5.4,3.05 13.05,-0.65 4,-1.9 8.65,-2.6 17.2,-2.6 6.55,0 6.9,0.05 9.75,1.5 2.75,1.4 7.8,3 9.35,3 0.35,0 0.95,-0.65 1.4,-1.5 0.5,-0.95 2.25,-2.35 5.15,-4.05 2.4,-1.4 4.95,-3.1 5.7,-3.8 l 1.3,-1.25 -1.2,-2.55 c -0.65,-1.45 -1.2,-2.8 -1.2,-3.1 -0.05,-0.25 -0.7,-1.3 -1.5,-2.25 l -1.5,-1.7 v 3.85 c 0,2.1 -0.15,3.85 -0.35,3.85 -0.25,0 -2.2,-1.95 -4.4,-4.35 -8.7,-9.5 -13.45,-14.15 -16.8,-16.4 -1.95,-1.3 -3.65,-2.2 -3.85,-2.05 -0.15,0.2 0.45,1.85 1.35,3.7 2.9,5.75 4.2,9.9 3.05,9.5 -0.25,-0.05 -3,-3.3 -6.1,-7.2 -11.15,-13.9 -28.1,-32.65 -31,-34.25 -0.5,-0.3 -15.4,10.75 -22.85,17.55 -11.15,10.2 -26.35,22.9 -29.8,24.95 C 665,632 660,635.8 659.4,637 l -0.8,1.6 c -0.1,0.2 3.95,0.35 9,0.35 5.15,-0.05 12.35,0.3 16.4,0.7 7.6,0.85 18.45,1.65 29,2.15 3.45,0.15 7.3,0.6 8.6,0.95 2.4,0.7 7.1,3.2 6.75,3.6 -0.55,0.55 -24.25,0.1 -30.35,-0.6 -7.35,-0.8 -20.85,-1 -21.95,-0.3 -0.55,0.35 -0.45,0.6 0.5,1.2 1.75,1.1 5.95,1.85 10.6,1.85 5.45,0 10.5,0.8 13.05,2 2.5,1.2 6.1,1.05 13.8,-0.5 z m 84.4,-30.95 c 1.2,-0.75 -0.15,-2.05 -7.35,-7.15 -3.75,-2.7 -8,-5.95 -9.45,-7.25 -6.4,-5.4 -6.00912,-7.47505 1.65,-1.55 3.15,2.65 8.65,6.4 9.45,6.4 1.9,0 -6.85,-12.3 -19.45,-27.3 C 765.9,573.5 762,567.75 762,565.75 c 0,-1.65 1.5,-0.55 4.7,3.45 4.95,6.3 14.85,15.45 18.75,17.4 3.2,1.6 9.8,7.15 10.9,9.2 0.35,0.6 1.1,2.85 1.7,5 0.6,2.2 1.65,5.1 2.4,6.45 l 1.3,2.5 0.15,-11.5 c 0.15,-12.35 -0.65,-35.9 -1.4,-40 -0.5,-2.8 -1.45,-10.25 -3,-24.4 -1,-9.25 -2.1,-15.75 -2.9,-17.15 -0.6,-1.05 -10.45,5.4 -30.1,19.7 -5.4,3.9 -13.8,11 -16,13.5 -3.25,3.65 -6.5,8.85 -7.6,12.1 l -1.05,2.95 1.3,2.65 c 1.25,2.45 8.25,11.3 13.05,16.4 1.15,1.25 2.5,2.8 2.95,3.5 9.79712,14.22163 26.66017,19.40948 32.3,26.7 1.6,2.05 3.05,3.3 4.8,4.1 2.75,1.3 3.2,1.4 4.15,0.75 z m -547,-14.3 c 0.85,-0.7 1.7,-2 1.85,-2.9 0.5,-2.25 1.5,-3.2 5.25,-5.1 1.8,-0.9 5,-2.55 7.2,-3.7 2.15,-1.15 4.3,-2.05 4.75,-2.05 1.2,0 9.75,-2.8 11.95,-3.95 1.05,-0.55 4,-2.65 6.5,-4.75 2.55,-2.05 5.8,-4.3 7.25,-4.95 3.25,-1.55 10.35,-3.35 13.1,-3.35 1.1,0 5.15,-0.75 8.9,-1.7 14.14811,-3.31303 21.13238,-8.69856 31.35,-15.95 1.3,-0.9 3.45,-2.9 4.75,-4.5 l 2.35,-2.9 -1.15,-2.85 c -0.9,-2.2 -2.2,-3.85 -5.65,-7.25 -4.45,-4.4 -4.45,-4.45 -3.9,-6.05 0.8,-2.15 0.75,-4.05 -0.1,-5.75 -1.05,-1.95 -4.45,-4.95 -6.8,-5.85 -2.1,-0.85 -4.3,-3.3 -7,-7.85 -2.2,-3.65 -4.8,-6.35 -8.2,-8.55 -1.7,-1.1 -3.35,-2.75 -4.5,-4.45 -1.05,-1.55 -4.35,-5.2 -7.45,-8.2 -3.1,-3 -7.95,-8 -10.8,-11.1 -5.75,-6.25 -9.9,-9.9 -16.05,-14.2 l -4.1,-2.85 -3.1,1.05 c -1.65,0.6 -4.2,1.6 -5.65,2.25 0,0 -5.9,4.15 -6.8,6.7 -2.50449,6.69475 -1.01645,-1.26215 -7.15,-4.75 -1.15,-0.65 -3.35,-1.7 -4.9,-2.25 -4.3,-1.65 -4.55,-2.35 -3,-7.7 0.7,-2.4 1.15,-4.5 1,-4.65 -0.15,-0.2 -1.6,0.75 -3.15,2.05 -1.6,1.25 -4.05,3.05 -5.45,4 -3.3,2.2 -4,3.85 -3,6.85 1.05,2.95 1,3.6 -0.45,6.45 -0.7,1.4 -1.1,2.5 -0.9,2.5 0.15,0 1.8,-0.6 3.55,-1.3 3.65,-1.45 10.8,-6.55 16.3,-5.95 0,0 7.15,3.45 7.15,4.75 0,3.95 -4.5,16.1 -9.75,21.6 -5.1,5.35 -5.6,6.2 -6.85,11.4 -0.5,2.05 -1.15,4.75 -1.5,6 -1.6,5.6 -2.25,15.1 -2.8,42.25 -0.6,28.1 -0.6,26.95 -0.2,29.75 0.25,1.6 0,3.55 -0.75,6.5 -1.2,4.7 -1.1,6.7 0.6,12 1.45,4.5 1.6,4.65 3.9,3.5 1,-0.5 2.55,-1.55 3.4,-2.25 z m 409.5,-9.85 c 2.65,-1.95 6.7,-5.3 8.95,-7.4 5.3,-4.95 8.25,-6.55 12.4,-6.75 3.6,-0.2 5.05,-0.85 8.25,-3.6 1.25,-1.1 4.05,-3.35 6.25,-5 6.8,-5.25 6.8,-5.2 7.3,-7.85 0.85,-4.65 -0.25,-7.1 -7.5,-16.25 -13.65,-17.25 -33.2,-37.45 -42.25,-43.6 -5.45,-3.7 -6.05,-3.75 -5.55,-0.55 0.15,1.3 0.65,3.35 1,4.6 0.4,1.25 0.95,5.25 1.25,8.95 0.3,3.65 0.85,8.8 1.25,11.5 0.35,2.65 0.85,6.4 1.05,8.3 0.15,1.95 0.55,3.9 0.8,4.4 0.25,0.5 1.1,4.45 1.9,8.75 3.05,17 3.15,21.4 0.5,28.55 -1.7,4.65 -3,10.15 -3,12.85 0,1.55 1.8,6.7 2.3,6.7 0.1,0 2.4,-1.6 5.1,-3.6 z M 211.6,584.75 c 0.15,-7.45 0.25,-8.15 1.3,-9.45 0.7,-0.9 1.1,-2.1 1.1,-3.35 0,-3 -1,-6.75 -2,-7.7 -0.9,-0.8 -1,-0.7 -2.25,3.35 -1.2,3.7 -1.3,4.9 -1.3,11.4 0,7.25 0.55,11.6 1.6,13.55 1.05,1.95 1.35,0.2 1.55,-7.8 z M 417.85,565.4 c -0.25,-15.7 -0.5,-20.3 -1.3,-25.65 -0.7,-4.45 -1.05,-9 -1.05,-14.4 0,-10.45 -0.7,-11.9 -3.4,-7.2 -0.85,1.4 -3.4,4.75 -5.65,7.35 -2.25,2.6 -5.4,6.45 -7,8.55 -3.2,4.25 -4.75,5.45 -6.9,5.45 -1.7,0 -3.55,1.95 -3.55,3.7 0,0.6 1.15,2.45 2.55,4.05 3.65,4.3 7.15,11.6 7.25,15.25 0.1,3.55 1.6,6.55 3.85,7.95 2.15,1.3 2.75,1.3 4.15,0 l 1.1,-1 3.4,6.15 c 4.15,7.6 5.05,8.9 6.05,8.9 0.7,0 0.75,-1.95 0.5,-19.1 z m -187.7,-0.85 c 2.55,-3.55 3.45,-5.5 3.15,-6.8 -0.35,-1.4 0.25,-4.6 1.65,-8.4 0.6,-1.6 0.95,-3.35 0.8,-3.9 -0.5,-1.55 -2.75,-3.95 -3.7,-3.95 -2.55,0 -3.85,5 -2.25,8.55 0.9,2.05 0.9,2.05 -0.45,5.9 -1,2.8 -1.35,4.75 -1.35,7.45 0,1.95 0.1,3.6 0.2,3.6 0.1,0 1,-1.1 1.95,-2.45 z m 492.5,-17.85 c 2.5,-1.3 5.95,-4.7 7.8,-7.7 2.65,-4.3 10.55,-19.15 13.85,-26 3.75,-7.7 5.6,-10.45 14.45,-21.4 11.6,-14.35 20.9,-26.95 20.5,-27.6 -0.45,-0.7 -7.85,-1 -27.5,-1.25 -10.85,-0.1 -20.2,-0.45 -21.75,-0.75 -1.8,-0.35 -10.2,-0.5 -24.25,-0.45 -21.25,0.15 -21.5,0.1 -23.5,-0.95 -1.6,-0.9 -2.75,-1.1 -6.6,-1.1 -5.1,0 -10.8,-0.75 -13.9,-1.8 -2.35,-0.8 -5.15,-0.9 -6.25,-0.2 -0.65,0.4 -0.6,0.8 0.5,2.75 0.7,1.3 2.5,3.85 4,5.65 1.55,1.85 3.2,4.05 3.7,4.85 1.65,2.6 11.1,13 17.7,19.5 3.5,3.4 9.5,8.7 13.35,11.75 3.85,3.1 7.95,6.5 9.15,7.65 2,2 2.7,3.35 1.6,3.35 -0.75,0 -5.3,-2.35 -8.5,-4.4 -9.1,-5.75 -31.8,-26.45 -37.9,-34.6 -3.1,-4.1 -9.45,-11 -10.15,-11 -0.25,0 -0.45,0.75 -0.45,1.65 0,2.3 2.4,5.4 11.9,15.3 10.4,10.9 17.95,19.35 22,24.55 1.8,2.35 7.35,8.95 12.3,14.7 5,5.75 10.3,11.9 11.85,13.75 3.45,4 13.7,14.55 14.15,14.55 0.2,0 1.05,-0.35 1.95,-0.8 z m -355,-5.1 c 0.5,-0.85 0.95,-2.2 0.95,-3 0.05,-2 -3,-6.35 -9.3,-13.2 -5.6,-6.1 -22.05,-22.35 -27.35,-27.05 l -6.55,-6.55 c 1.16791,-2.08593 2.47521,-2.96201 3.3,-5.2 l 8.9,7.95 c 6.7,6.1 13.15,12.6 25.55,25.6 11.1,11.65 13.05,12.65 17.95,9.05 l 2.65,-1.95 -1.6,-0.15 c -0.9,-0.1 -2.45,0.05 -3.5,0.35 -1.1,0.3 -2.05,0.35 -2.3,0.1 -0.25,-0.25 -0.65,-3.35 -0.95,-6.9 -0.45,-5.9 -0.4,-6.45 0.45,-7.05 0.5,-0.35 3.95,-2.8 7.65,-5.45 3.7,-2.6 8,-5.8 9.5,-7.1 l 2.75,-2.3 -1.45,1.9 c -0.8,1.05 -1.3,2 -1.15,2.15 0.35,0.35 -2.4,2.75 -3,2.65 -1.1,-0.2 -1.55,0.15 -1.3,0.95 0.15,0.65 -0.85,1.85 -3.7,4.3 -6.45,5.6 -7.7,8 -6.15,12.05 0.45,1.25 0.55,1.25 1.85,0.55 0.8,-0.4 1.9,-1.3 2.55,-2 1.3,-1.4 6.9,-3.75 10.1,-4.25 2.15,-0.3 2.25,-0.4 2.8,-2.55 1.1,-4.45 2.9,-7.1 11.5,-16.9 5.45,-6.25 6.7,-8.55 6.35,-11.95 -0.15,-1.45 -0.4,-2.65 -0.6,-2.6 -0.15,0 -1.1,0.95 -2.05,2.1 -3.65,4.3 -14,14.05 -14,13.1 0,-0.5 1.55,-2.5 3.4,-4.45 4,-4.2 7.5,-9.65 9.9,-15.3 1.8,-4.3 1.8,-4.85 -0.3,-6.75 -0.6,-0.55 -1.5,-1.8 -2,-2.75 -1.9,-3.85 -1.6,-6.65 1.1,-10.15 1.8,-2.3 1.55,-3.15 -0.95,-3.8 -5.05,-1.35 -43.6,-2.05 -59.9,-1.05 -15.05,0.9 -29.05,2.65 -33.5,4.25 -1.1,0.35 -4.75,1.2 -8.1,1.85 -3.4,0.65 -6.15,1.35 -6.15,1.6 0,0.7 16.2,16.6 18.4,18.05 1.1,0.75 2.1,1.75 2.25,2.35 0.15,0.55 0.5,0.85 0.8,0.65 0.5,-0.3 3.15,1.35 6.25,3.85 0,0 0.93723,0.99343 -3.3,5.2 -0.15,0.1 -3.2,-2.45 -6.85,-5.7 C 306.4,475.4 304,473.4 304,474.2 c 0,0.15 1.1,1.5 2.45,3.05 1.35,1.55 3.4,4.65 4.6,6.9 2.35,4.65 4.35,7 7.15,8.45 1.95,1 2.35,0.9 2.95,-0.85 0.4,-1.15 5.5,2.45 10.45,7.4 1.5,1.5 1.9,2.25 1.9,3.7 0,2 1.3,3.4 10.55,11.65 7.45,6.65 10.4,10.9 10.45,15.05 0,2.75 1.25,4.8 5.4,9.15 3,3.05 5.5,4.9 6.35,4.65 0.25,-0.1 0.9,-0.9 1.4,-1.75 z m 449.1,-10.25 c -1.3,-7.35 -1.55,-16.95 -0.55,-22.2 0.9,-4.55 0.9,-10.05 0.05,-10.3 -0.75,-0.15 -4.65,7.95 -5.3,11.1 -1.15,5.35 1.6,18.85 5.2,25.8 1.45,2.75 1.65,1.4 0.6,-4.4 z M 231.5,525.4 c 0.8,-0.9 1.85,-2.7 2.25,-4 0.45,-1.3 1.05,-2.5 1.3,-2.65 0.25,-0.2 0.45,-0.65 0.45,-1.1 0,-1 -4.05,-7.6 -5.4,-8.8 -0.95,-0.85 -1.05,-0.85 -2.05,0.45 -1.45,1.85 -1.3,3.15 0.55,5.4 l 1.55,1.9 -1.05,2.2 c -0.6,1.25 -1.1,2.6 -1.1,3.05 0,0.9 1.5,5.15 1.8,5.15 0.15,0 0.9,-0.75 1.7,-1.6 z m 9.3,-19.6 c -0.25,-2.5 -2.3,-8.3 -2.95,-8.3 -0.4,0 -3.8,5.3 -4.55,7 -0.7,1.7 -0.65,1.85 1.3,5.15 l 2.05,3.4 2.2,-2.15 2.25,-2.15 z m 435.9,-2.4 c -0.45,-0.9 -2.55,-3.55 -4.65,-5.85 -4.55,-5 -17.55,-17.15 -18.1,-16.95 -0.2545,0.43743 0.15043,1.04212 0.45,1.45 0.8,1.2 2.3,3 7.55,9.15 4.7,5.45 13.35,14.45 14.3,14.8 1.35,0.5 1.55,-0.5 0.45,-2.6 z m -446.45,-9.45 c 0.75,-2.25 0.8,-2.95 0.25,-5.25 -0.35,-1.45 -0.5,-3.5 -0.3,-4.65 0.3,-1.9 -0.3,-3.15 -0.95,-2 -0.5,0.75 -2.7,9.95 -2.75,11.2 0,1.3 1.35,3.25 2.25,3.25 0.35,0 1.05,-1.15 1.5,-2.55 z M 220,494 c 0,-0.3 -0.35,-1.35 -0.75,-2.35 -1,-2.35 -1,-2.3 0.95,-1.95 1.45,0.3 1.75,0.15 2.05,-0.75 0.2,-0.6 0.15,-2.35 -0.05,-3.9 -0.2,-1.55 -0.4,-4.3 -0.4,-6.15 -0.05,-1.8 -0.25,-3.5 -0.45,-3.7 -0.85,-0.85 -2.15,0.8 -3.8,4.8 -2.15,5.35 -2.4,7.4 -1.3,10.1 1.15,2.95 3.75,5.65 3.75,3.9 z m 17.5,-4 c 0.6,-0.8 2.05,-2.65 3.3,-4.1 1.2,-1.4 2.2,-2.95 2.2,-3.4 0,-0.9 -2.85,-3.85 -3.25,-3.4 -0.35,0.35 -3.5,9.15 -3.95,11.05 -0.4,1.8 0.35,1.75 1.7,-0.15 z M 235,478.5 c 0.65,-3.5 1.4,-5.35 2.3,-5.7 0.9,-0.35 0.9,-1.5 -0.05,-3.3 -0.9,-1.75 -2.6,-2.4 -3.65,-1.35 -1.05,1.1 -1.4,7.7 -0.6,11.15 0.8,3.2 1.3,2.95 2,-0.8 z m 526.65,-26 c 2.95,0 5.35,-0.2 5.35,-0.4 0,-0.25 -2.3,-3.95 -5.1,-8.25 -2.85,-4.3 -7.6,-11.65 -10.65,-16.4 -11,-17.15 -17.25,-26.3 -20.45,-29.95 -4.2,-4.8 -9.3,-11.25 -10.65,-13.5 -1.1,-1.9 -1.8,-5.85 -1.1,-6.3 0.55,-0.3 7.45,5.9 17.35,15.55 5.85,5.7 7.95,8.2 11.5,13.5 2.4,3.6 5.8,9.55 7.65,13.25 4.15,8.5 10.55,18 15.4,22.95 4.2,4.25 4.2,4.25 9.7,7.1 4.95,2.55 6,2.45 6.4,-0.5 0.75,-5.55 -5.7,-29.95 -11.3,-42.6 -3.25,-7.5 -11.25,-21.75 -17.45,-31.15 -11.65,-17.8 -24.55,-32.2 -30,-33.6 -0.7,-0.15 -2.25,-1.2 -3.4,-2.3 -1.95,-1.85 -7.4,-4.9 -8.7,-4.9 -0.8,0 -11.9,-4.15 -16.7,-6.25 -7.85,-3.45 -18.25,-8.55 -21.15,-10.4 -1.6,-1.05 -5.35,-3.1 -8.4,-4.6 -5.15,-2.6 -5.55,-2.75 -6.6,-2 -0.6,0.4 -1.8,0.75 -2.7,0.75 -0.9,0 -1.65,0.25 -1.65,0.55 0,1.95 5.2,7.85 10.15,11.5 9.1,6.65 21.2,17.55 27.55,24.75 5.55,6.3 15.5,21.65 14.65,22.55 -0.45,0.4 -3.55,-2.4 -8.35,-7.6 -12.3,-13.35 -32.7,-31.3 -45.65,-40.15 -1.7,-1.15 -3.35,-2.25 -3.6,-2.5 -0.3,-0.2 -0.75,-0.4 -1.05,-0.45 -0.25,-0.05 -1.1,-0.25 -1.85,-0.4 -1.35,-0.35 -1.35,-0.35 -1.4,2.55 -0.1,3.35 -0.1,3.5 -0.65,7.1 -0.25,1.4 -1.7,7.45 -2.9,11.85 -3,10.9 -3.85,16.75 -3.85,26.5 -0.05,5.75 0.15,7.35 1.7,13.75 1.9,7.9 2.15,11.95 1.05,16.65 -0.4,1.6 -1.2,3.45 -1.85,4.15 -1.15,1.25 -1.2,1.55 -1.2,9.6 0,8.1 0.05,8.55 1.95,15.85 1.6,6.1 2,8.7 2.25,13.9 0.35,7.2 0.45,7.35 4.3,8.4 3.25,0.9 18.95,0.3 21.75,-0.85 1.9,-0.75 3.75,-0.9 12,-0.95 8.9,0 10.1,0.1 13.5,1.2 4.3,1.35 8.15,1.45 17.3,0.5 6.95,-0.7 14.25,-0.35 22.95,1.05 4.55,0.75 7.5,0.9 12.25,0.75 3.45,-0.15 8.65,-0.25 11.65,-0.25 z m -299,-11.3 c 3.45,-0.35 3.8,-1.2 0.5,-1.2 0,0 -13.97577,-0.0644 -18.4,0.15 -6.2,0.25 -9.85,0.9 -9.1,1.65 0.1,0.1 2.1,0.75 4.4,1.45 4.9,1.45 22.6,-2.05 22.6,-2.05 z m 77.55,3.8 c 2.65,-0.55 7.8,-1.25 11.45,-1.5 3.65,-0.3 7.4,-0.8 8.35,-1.1 l 1.75,-0.6 -1.75,-0.35 c -0.95,-0.25 -7.6,-0.65 -14.75,-0.95 -7.15,-0.3 -16.2,-0.75 -20.1,-1 -13.4,-0.95 -16.15,-0.65 -16.15,1.75 0,1 0.3,1.25 1.9,1.5 1,0.15 2.55,0.4 3.35,0.55 0.85,0.15 4.45,0.45 8.05,0.7 3.7,0.25 7.3,0.75 8.25,1.2 2.35,1 4,0.95 9.65,-0.2 z m -5.65,-8.05 c 2.2,-0.75 2.15,-0.65 1.2,-2.1 -0.45,-0.7 -0.6,-1.35 -0.4,-1.5 1.75,-1 24.85,-1.25 31.9,-0.35 2.5,0.3 5.6,0.9 6.95,1.3 1.35,0.4 2.55,0.6 2.65,0.5 0.45,-0.4 -6.8,-7.1 -16.6,-15.35 -5.7,-4.8 -10.75,-9 -11.25,-9.35 -0.8,-0.6 -1.65,-0.15 -7.35,3.55 -3.5,2.3 -8.25,5.3 -10.55,6.65 -4.65,2.75 -9.75,6.6 -11.55,8.8 -0.65,0.85 -1.5,2.3 -1.85,3.3 -0.95,2.75 0.05,3.35 5.9,3.75 2.55,0.2 5.35,0.55 6.15,0.8 2.05,0.65 2.85,0.65 4.8,0 z m -131.7,-1.4 c 2.6,-0.35 3.6,-0.8 3.05,-1.35 -0.3,-0.25 -5.95,-1.25 -18.4,-3.25 -3.45,-0.55 -7.65,-1.3 -9.4,-1.7 -6.3,-1.45 -10.6,-0.5 -10.6,2.4 0,1.1 3.1,3.5 5.25,4 1.65,0.4 27.25,0.3 30.1,-0.1 z m 50.8,-1.7 c 1.9,0.2 3.5,0 5.35,-0.6 1.95,-0.65 3.3,-0.75 5.2,-0.5 3.85,0.55 9.9,0.3 11.1,-0.5 1.1,-0.7 2.7,-4.95 2.7,-7.2 0,-0.7 0.8,-3.55 1.75,-6.3 2.25,-6.35 2.8,-9.05 2.8,-13.85 0,-6 1.05,-5.7 3.05,0.8 l 1.2,3.95 2.05,-5.25 c 2.45,-6.2 3.65,-10.55 3.65,-13.3 0,-1.1 0.6,-4 1.3,-6.4 0.7,-2.45 1.7,-6.25 2.25,-8.5 0.5,-2.2 1.4,-5.35 1.95,-6.95 l 1,-2.95 -2.15,-2.3 c -1.2,-1.25 -2.8,-3.1 -3.55,-4.15 -1.6,-2.2 -4.6,-3.85 -6.95,-3.85 -2.1,0 -2.7,-0.65 -5.3,-6 -4.25,-8.95 -13.85,-18.45 -28.55,-28.35 -6.3,-4.2 -20.5,-12.15 -21.8,-12.15 -0.9,0 -1.45,0.45 -2.05,1.75 -0.8,1.7 -0.8,2 -0.05,5.15 1.9,7.75 1.65,8.6 -1,3.2 -0.9,-1.9 -2.3,-4.2 -3.1,-5.15 -1.45,-1.65 -1.5,-1.65 -2.1,-0.7 -0.9,1.35 -4.35,9.55 -5.05,11.9 -0.4,1.25 -0.8,1.85 -1.35,1.75 -0.4,-0.1 -0.75,-0.5 -0.75,-0.9 -0.05,-0.4 -0.35,-1.25 -0.65,-1.9 -0.35,-0.6 -1.2,-2.85 -1.9,-5 -0.7,-2.1 -1.45,-4 -1.65,-4.25 -1,-1.05 0.25,6.5 1.95,11.65 1.5,4.55 2.1,7.4 2.75,13.5 1.25,11.4 2.95,16.65 5.55,17.3 2.85,0.7 2.75,-0.95 -0.6,-14.55 -0.95,-3.8 -1.7,-8.15 -1.7,-9.55 0,-2.4 3,-15.4 3.75,-16.1 0.2,-0.2 0.2,1 0,2.65 -0.4,3.65 1.3,14.65 2.65,16.95 0.95,1.6 2.8,2.3 3.75,1.35 1.05,-1.05 1.85,-0.6 1.85,1 0,0.85 0.3,2.85 0.7,4.4 0.4,1.55 1,5.3 1.3,8.3 0.3,3.05 1.05,8.5 1.6,12.15 0.8,5.15 0.95,7.3 0.6,9.75 -0.7,5 -0.45,16.1 0.5,21.1 1.4,7.45 4.05,15.25 6.35,18.7 l 2.05,3.1 -1.05,2.75 c -0.55,1.55 -1.05,3.75 -1.05,4.85 0,1.15 -0.25,2.95 -0.55,4 -0.3,1.1 -0.35,2.8 -0.2,3.9 l 0.35,1.95 h 2.4 c 1.35,0 8.22097,-0.76491 9.65,-0.65 z m 160.1,-2.1 c 0.7,-0.65 1.25,-1.75 1.25,-2.4 0,-1 -0.5,-1.4 -2.5,-2.25 -3.2,-1.35 -6.15,-3.7 -8.4,-6.85 -2.45,-3.35 -4.15,-4.75 -5.25,-4.45 -0.5,0.15 -1.25,0 -1.65,-0.35 -0.4,-0.35 -1.35,-0.7 -2.1,-0.8 -1.9,-0.25 -9.6,0.9 -9.6,1.45 0,0.4 2.6,3.95 5.35,7.35 0.75,0.95 2.05,2 2.9,2.35 0.8,0.35 2.25,1.2 3.2,1.9 1.35,1 2.35,1.3 4.3,1.3 2,0 2.8,0.25 3.55,1.05 1.2,1.4 4.55,2.9 6.35,2.95 0.85,0 1.9,-0.5 2.6,-1.25 z m -216.25,-3.8 c 3.2,-0.05 5.35,-0.1 11.4,-0.35 l 3.1,-0.1 v -2.85 c 0,-1.6 -0.35,-6.15 -0.7,-10.15 -0.4,-4 -1,-15.9 -1.25,-26.5 -0.3,-10.6 -0.7,-21.15 -0.85,-23.45 -0.2,-2.75 -0.15,-4.1 0.15,-3.9 0.3,0.2 0.65,1.65 0.75,3.2 0.15,1.6 0.6,3.7 1.05,4.65 0.8,1.7 0.85,1.4 0.6,-7.5 -0.15,-5.1 -0.55,-11.6 -1,-14.5 -0.4,-2.9 -0.75,-7.35 -0.75,-9.9 0,-2.5 -0.35,-6.9 -0.75,-9.75 -0.45,-2.8 -1,-7.45 -1.25,-10.3 -0.25,-2.9 -0.7,-5.45 -0.95,-5.7 -0.75,-0.75 -6.95,2.65 -10,5.45 -1.55,1.4 -3.45,2.7 -4.3,2.9 -0.8,0.2 -2.5,1.15 -3.8,2.1 -2.15,1.55 -2.65,1.7 -5.85,1.7 -4.55,0 -7.6,1.05 -11.3,3.85 -1.65,1.2 -4,2.8 -5.25,3.5 -3.15,1.8 -4.55,3.1 -5.35,5 -0.8,1.9 -2.95,3.35 -9.5,6.5 -3.7,1.75 -5.3,2.9 -7.6,5.3 -9.05,9.6 -11.35,11.85 -12.1,12.1 -0.95,0.3 -2.5,3.3 -2.5,4.9 0,0.6 -0.35,2.55 -0.75,4.35 -0.4,1.8 -0.85,3.85 -1,4.6 -0.2,1 -0.65,1.45 -1.65,1.7 -0.75,0.15 -2.6,0.8 -4.1,1.45 -1.5,0.6 -3.65,1.4 -4.75,1.75 -1.1,0.35 -2.6,1.05 -3.35,1.6 -1.35,0.95 -1.4,1.1 -1.4,5.95 0,4.3 -0.15,5.1 -1,5.95 -0.55,0.55 -1.3,1 -1.7,1 -1,0 -3.8,3.3 -4.9,5.85 -1.05,2.4 -1.25,2.5 -2.15,1.35 -0.5,-0.7 -0.85,-0.5 -2.65,1.55 -2.3,2.6 -2.5,3.15 -1.35,3.55 1.2,0.45 0.95,1.3 -2.25,7.55 -1.6,3.25 -3.4,6.95 -3.95,8.3 l -1,2.35 h 2.2 c 1.2,0 5.4,-0.55 9.35,-1.2 6.9,-1.15 8.3,-1.2 40.15,-1.45 29.6,-0.25 39.15,-0.05 44.75,0.85 2.75,0.45 3.38465,0.92113 2.6,1.4 -1.43104,0.87335 -2.69381,1.27378 -4.95,1.65 -3.95,0.55 -6.15,1.25 -6.15,1.95 0,0.005 0.0181,2.09355 18,1.75 z m 231.15,0.7 c -0.1,-1.05 -0.9,-5.25 -1.65,-9.4 -2.1,-11 -2.15,-11.85 -1.3,-19.35 0.6,-4.95 0.8,-11.45 0.8,-23.25 0,-20.95 -0.15,-22.6 -2.3,-25.6 -0.95,-1.25 -2.15,-3.25 -2.75,-4.4 -1.65,-3.3 -2.15,-3.1 -7.35,2.85 -2.7,3.1 -3.1,3.95 -2.5,5.3 0.85,1.85 0.2,2.55 -2.8,2.9 -3.65,0.5 -8.25,2.8 -11.2,5.7 -1.9,1.9 -2.55,2.95 -3.25,5.5 -0.9,3.25 -3.4,7.75 -5.8,10.25 -0.7,0.8 -2.6,2.35 -4.15,3.45 -1.6,1.15 -2.9,2.25 -2.9,2.45 0,0.2 1,1 2.25,1.75 2.15,1.25 4.93728,4.0148 3.93728,4.6148 -0.5,0.35 -7.58728,-4.5648 -8.58728,-5.8148 -0.4,-0.55 -0.75,-0.65 -1.15,-0.25 -2.09252,2.09252 9,11.13331 9,12.1 -0.36061,2.30388 0.10509,5.1312 -1.84351,3.37042 -0.0742,-0.067 -4.45649,-3.77042 -6.70649,-5.57042 -2.3,-1.8 -4.65,-3.4 -5.25,-3.55 -1.2,-0.3 -3.7,1.3 -4.95,3.2 -0.7,1.1 -0.7,1.25 0.15,2.2 2.95,3.25 25.05,15.65 26.1,14.65 0.45,-0.5 -2.7,-4.3 -6.9,-8.45 -3,-2.9 -4.1,-4.3 -3.5,-4.3 0.5,0 1.15,-0.45 1.45,-1 0.4,-0.8 0.75,-0.9 1.45,-0.55 1.45,0.8 9.3,10.05 10.45,12.35 0.9,1.8 6.25,7.15 7.15,7.2 0.2,0 0.45,-0.45 0.6,-1.05 0.25,-1 0.35,-0.95 3.2,0.45 1.6,0.85 4.05,2.4 5.4,3.55 3.8,3.15 3.95,2.75 0.75,-2.25 -3.3,-5.25 -18.9,-20.1 -25.6,-24.45 -0.75,-0.45 -4.43738,-3.49949 -4.28738,-3.79949 0.49738,-0.82897 5.24886,1.15113 10.13738,5.39949 10.8,9.25 25.15,23.95 28.35,29 1.95,3.1 4.85,6.65 5.4,6.65 0.25,0 0.3,-0.85 0.15,-1.85 z M 317,426.25 c 9.4,-1 38,-1.3 49.4,-0.55 l 6.65,0.45 1.45,-1.4 c 1.3,-1.25 1.4,-1.5 0.7,-1.9 -2.1,-1.2 -53.95,-0.65 -64.7,0.65 -4.85,0.6 -10.3,2.1 -11.75,3.25 -0.9,0.7 -0.55,0.75 4.5,0.6 3.05,-0.1 9.2,-0.6 13.75,-1.1 z M 500.2,415.6 c 0.2,-0.5 -0.05,-2 -0.45,-3.4 -1.05,-3.45 -0.95,-4.85 0.6,-7.95 1.45,-3 5.85,-8.2 6.4,-7.65 0.2,0.2 0.1,1.75 -0.25,3.4 -0.9,4.25 -0.35,8.05 1.6,11.1 l 1.6,2.45 0.85,-1.7 c 1.2,-2.25 3.95,-4.65 8.45,-7.3 8.1,-4.75 11.3,-6.85 12.95,-8.3 l 1.65,-1.55 -2.65,-2.55 c -1.5,-1.4 -4.4,-3.95 -6.5,-5.6 l -3.8,-3.1 c -4.57006,-3.86354 1.83688,-3.49762 2.35,-5.4 0,-0.95 0.95,-0.5 5.1,2.6 2,1.45 4.35,3.1 5.15,3.6 l 1.5,0.95 -1.75,-1.95 c -0.95,-1.1 -3.05,-3.3 -4.6,-5 -1.6,-1.65 -2.9,-3.4 -2.9,-3.85 0,-0.75 0.45,-0.7 4.15,0.45 5.7,1.7 10.4,3.95 15,7 2.15,1.45 4.25,2.65 4.75,2.65 0.8,0 5,-4.1 7.45,-7.35 l 1.25,-1.65 -3.5,-3.45 c -1.95,-1.9 -4.85,-4.45 -6.4,-5.6 -1.6,-1.15 -5.1,-4.2 -7.75,-6.8 -2.7,-2.55 -5.15,-4.65 -5.4,-4.65 -0.8,0 -4.5,-3.5 -5.3,-4.95 -1,-1.95 -4.2,-5 -6.25,-6.05 -1,-0.5 -2.95,-1.95 -4.35,-3.2 -1.9,-1.7 -2.65,-2.15 -3,-1.65 -0.45,0.6 -3.65,7.65 -3.65,8.05 0,0.1 2.2,1.8 4.9,3.7 2.7,1.95 5.65,4.35 6.55,5.4 1.95,2.2 5.55,9.4 5.55,11.05 0,1.55 -0.75,1.45 -1.45,-0.25 -0.7,-1.7 -15.3,-14.1 -16.6,-14.1 -0.25,0 -0.85,0.85 -1.4,1.9 -1.1,2.2 -0.9,2.85 1.95,5.4 1.05,0.95 2.75,3.35 3.8,5.35 1.05,1.95 2.65,4.65 3.55,5.9 0.9,1.3 1.65,2.55 1.65,2.85 0,0.3 0.25,0.6 0.6,0.7 3.41708,1.13903 1.52653,10.37033 -3.55,6.05 l -3.15,-2.5 c -6.25,-4.95 -10.5,-8.15 -10.85,-8.15 -0.5,0 -1.4,2.55 -3,8.25 -4.75,16.85 -5.5,20.4 -5.3,25.4 0.3,7.45 1.6,12.35 3.25,12.35 0.5,0 1.05,-0.4 1.2,-0.9 z m 296.95,-2.15 c 1.1,-0.3 1.85,-0.8 1.85,-1.25 0,-2.8 -7.6,-15.1 -15,-24.45 -2.55,-3.2 -6.4,-6.55 -6.9,-6 -0.25,0.25 1.95,4.85 5.55,11.55 2.5,4.65 4.55,10.4 4.15,11.5 -0.6,1.5 2.8,6.65 5.4,8.25 1.8,1.1 2.35,1.15 4.95,0.4 z M 565,364.25 c 1.15,-0.95 3,-2 4.15,-2.25 2.35,-0.65 7.8,-4.05 10.85,-6.8 1.1,-1 3.2,-3.55 4.7,-5.7 1.5,-2.15 3.8,-4.75 5.15,-5.8 3.4,-2.8 7.35,-7 8.65,-9.25 l 1.05,-1.95 h -1.65 c -2.4,0 -9.95,4.45 -14,8.3 -4.45,4.15 -5.7,5 -6.6,4.25 -1.05,-0.85 -1.95,-0.25 -3.3,2.15 -0.95,1.75 -1.85,2.55 -4.3,3.8 -3.15,1.55 -4.5,3 -5.5,5.7 -0.3,0.85 -0.8,1.6 -1.15,1.7 -1.2,0.4 -0.4,-5.75 1.15,-9.2 1.7,-3.8 4.05,-6.15 6.7,-6.75 1.55,-0.35 2.9,-1.3 5.7,-4.1 2.85,-2.85 4.15,-3.8 5.6,-4.05 1.15,-0.2 2.7,-1.1 3.95,-2.25 2.7,-2.5 7.1,-4.65 12.1,-6 4.45,-1.25 10.15,-4.1 14.05,-7.1 5.2,-4 13.2,-15.1 12.35,-17.25 -0.2,-0.55 -6.05,-3.7 -6.85,-3.7 -0.7,0 -9.15,-5.5 -10.25,-6.7 -0.85,-0.9 -1.5,-1.2 -2.5,-1 -0.8,0.15 -3,-0.4 -5.9,-1.5 -8.45,-3.3 -24.7,-7.05 -33.25,-7.75 -3.3,-0.25 -5.2,-0.65 -5.75,-1.2 -0.7,-0.6 -1.6,-0.7 -3.95,-0.5 -3.65,0.35 -8.05,-0.35 -15.3,-2.4 -2.95,-0.85 -5.95,-1.45 -6.75,-1.35 -1.65,0.2 -2.2,1.15 -5.2,9.2 -4.94524,10.62222 -4.46229,3.74589 -4.65,2.4 -0.3,-2.5 -3.65,-8.35 -4.55,-8.05 -1.25,0.4 -2.2,4.7 -2.2,10 -1.47488,1.58318 0.005,7.63119 -0.5,8.35 -0.25,0 0.05,1.25 0.6,2.75 0.6,1.5 1.4,2.75 1.7,2.75 1.15,0 1.35,2.55 0.4,4.95 -1.4,3.7 -1.55,10.95 -0.35,16.05 0.6,2.35 1.2,5.15 1.35,6.25 0.65,4.05 1.25,5.1 4.4,7.8 1.7,1.45 4.7,4.25 6.6,6.25 1.95,1.95 4.25,3.95 5.2,4.45 2.95,1.45 5.45,3.5 7.45,6.05 2.75,3.5 4.9,4.95 12.05,8.25 3.45,1.6 6.35,2.9 6.4,2.95 0,0 1,-0.8 2.15,-1.75 z M 504.7,351.4 c 1.3,-1.8 0.95,-3.25 -1.5,-6.7 -2.85,-4 -5.75,-6.5 -8.05,-6.95 -2.4,-0.45 -2.95,0.25 -1.85,2.3 2.15,4.3 8.85,12.45 10.15,12.45 0.3,0 0.85,-0.5 1.25,-1.1 z m 4.85,-16.2 c 0.2,-2.7 0.25,-5.2 0.1,-5.55 -0.5,-1.35 -4.1,-2.75 -6.15,-2.4 -1.7,0.3 -2,0.15 -3.05,-1.25 -2.95,-3.85 -4.75,-5.6 -8.6,-8.35 -4.6,-3.35 -8.8,-5.9 -9.1,-5.55 -0.25,0.25 -0.35,4.05 -0.15,5.65 0.25,1.75 -0.8,1.45 -1.85,-0.55 -2.55,-4.9 -17.8,-17.7 -21.05,-17.7 -0.65,0 -1.2,0.2 -1.2,0.4 0,1.9 16.8,18.15 25.65,24.75 4.35,3.3 8.65,5.8 11.35,6.6 2.1,0.6 7.85,4.7 10.35,7.3 1.5,1.5 2.55,2.25 2.85,1.95 0.25,-0.25 0.65,-2.65 0.85,-5.3 z M 511.7,315 c -0.05,-0.15 -0.4,-2.65 -0.7,-5.5 -0.4,-3.75 -0.95,-6.05 -1.95,-8.2 -3.6,-7.8 -5.45,-19.45 -4.05,-25.55 0.25,-1.1 0.25,-2.2 0.05,-2.4 -0.7,-0.7 -3.95,-1 -7.25,-0.65 -3.05,0.35 -3.25,0.45 -4.05,2.1 -0.85,1.85 -0.95,1.9 -4.1,1.7 -2.75,-0.1 -10.7,0.85 -13.9,1.75 -2.25,0.65 -2.65,0.95 -3.6,2.95 -1,2.05 -1.3,2.25 -3.45,2.6 -1.25,0.15 -3.65,0.2 -5.25,0 -1.65,-0.15 -2.95,-0.1 -2.95,0.1 0,0.95 11.35,10.05 16.05,12.9 5,3.05 8.45,5.9 8.45,6.95 0,2.4 8.4,10.45 13.85,13.25 1.3,0.65 3.7,2.05 5.3,3.1 1.6,1.05 3.05,1.9 3.15,1.9 0.15,0 1.1,0.55 2.1,1.25 l 1.85,1.25 0.3,-4.6 c 0.2,-2.55 0.25,-4.75 0.15,-4.9 z m 124.4,-38.85 c 2,-1.1 2.4,-1.55 2.4,-3 0,-1.95 -2.75,-3.5 -6.85,-3.9 -3.3,-0.35 -3.6,-0.3 -4.1,0.7 -0.35,0.55 -1.05,1.05 -1.55,1.05 -0.8,0 -0.65,0.3 0.9,1.7 1.75,1.6 6.25,4.3 7.15,4.3 0.2,0 1.1,-0.4 2.05,-0.85 z"
            id="path1"
        />
    </g>
</svg>
