<?xml version="1.0" encoding="UTF-8" standalone="no"?>
<svg
   width="136"
   height="136"
   enable-background="new"
   version="1.1"
   viewBox="0 0 35.983333 35.983334"
   id="svg4"
   sodipodi:docname="busywidget.svgz"
   xmlns:inkscape="http://www.inkscape.org/namespaces/inkscape"
   xmlns:sodipodi="http://sodipodi.sourceforge.net/DTD/sodipodi-0.dtd"
   xmlns="http://www.w3.org/2000/svg"
   xmlns:svg="http://www.w3.org/2000/svg">
  <sodipodi:namedview
     id="namedview4"
     pagecolor="#ffffff"
     bordercolor="#000000"
     borderopacity="0.25"
     inkscape:showpageshadow="2"
     inkscape:pageopacity="0.0"
     inkscape:pagecheckerboard="0"
     inkscape:deskcolor="#d1d1d1" />
  <defs
     id="defs1">
    <style
       id="current-color-scheme"
       type="text/css">.ColorScheme-Text {
        color:#31363b;
        stop-color:#31363b;
      }
      .ColorScheme-Background {
        color:#eff0f1;
        stop-color:#eff0f1;
      }
      .ColorScheme-Highlight {
        color:#3daee9;
        stop-color:#3daee9;
      }
      .ColorScheme-ViewText {
        color:#31363b;
        stop-color:#31363b;
      }
      .ColorScheme-ViewBackground {
        color:#fcfcfc;
        stop-color:#fcfcfc;
      }
      .ColorScheme-ViewHover {
        color:#93cee9;
        stop-color:#93cee9;
      }
      .ColorScheme-ViewFocus{
        color:#3daee9;
        stop-color:#3daee9;
      }
      .ColorScheme-ButtonText {
        color:#31363b;
        stop-color:#31363b;
      }
      .ColorScheme-ButtonBackground {
        color:#eff0f1;
        stop-color:#eff0f1;
      }
      .ColorScheme-ButtonHover {
        color:#93cee9;
        stop-color:#93cee9;
      }
      .ColorScheme-ButtonFocus{
        color:#3daee9;
        stop-color:#3daee9;
      }</style>
  </defs>
  <g
     transform="translate(.52916664 -249.37498)"
     id="g4">
    <g
       id="stopped">
      <rect
         x="-42.862503"
         y="249.37497"
         width="35.983334"
         height="35.983334"
         fill="none"
         id="rect1" />
      <g
         fill="#da4453"
         id="g3">
        <ellipse
           transform="rotate(90)"
           cx="267.36664"
           cy="38.364582"
           rx="1.322917"
           ry="1.3229166"
           opacity=".9"
           id="ellipse1" />
        <ellipse
           transform="rotate(90)"
           cx="267.36664"
           cy="11.377067"
           rx="1.0583339"
           ry="1.0583336"
           opacity=".9"
           id="ellipse2" />
        <ellipse
           transform="rotate(90)"
           cx="267.36664"
           cy="24.870825"
           rx="2.116667"
           ry="2.1166663"
           opacity=".9"
           id="ellipse3" />
      </g>
    </g>
    <rect
       id="hint-rotation-angle"
       x="-.52916706"
       y="285.35831"
       width="3.7041671"
       height="3.7041693"
       fill="#00f" />
    <g
       id="busywidget"
       transform="translate(-36.777084)">
      <rect
         x="36.247917"
         y="249.37498"
         width="35.983334"
         height="35.983334"
         fill="none"
         id="rect3" />
      <path
         class="ColorScheme-Background"
         d="m52.532118 252.55044c-0.315737 0-0.573947 0.25386-0.573947 0.56932l-1.007998 4.54326c-0.428551 0.1428-0.848041 0.31266-1.25401 0.51145l-3.916375-2.49352c-0.266356-0.16986-0.582195-0.22306-0.805482 0l-2.42121 2.42119c-0.223286 0.22306-0.223286 0.58239 0 0.80545l2.498378 3.92587c-0.200072 0.40413-0.370719 0.81758-0.516013 1.24439l-4.543381 1.00797c-0.315737 0-0.569162 0.25853-0.569162 0.57399v3.4146c0 0.31546 0.260959 0.50586 0.569162 0.57399l4.543381 1.00797c0.140712 0.42279 0.307286 0.83438 0.501555 1.23468l-2.503204 3.93558c-0.169527 0.26599-0.223287 0.58239 0 0.80545l2.416384 2.42119c0.223286 0.22306 0.587082 0.22306 0.810369 0l3.93567-2.50799c0.40717 0.20253 0.823605 0.37892 1.25401 0.52545l1.007997 4.54326c0 0.31546 0.25821 0.56932 0.573948 0.56932h3.414769c0.315738 0 0.505526-0.26133 0.57405-0.56932l1.007997-4.54326c0.428552-0.14279 0.84794-0.31266 1.25401-0.51145l3.916376 2.49352c0.223287 0.22306 0.582195 0.22306 0.805481 0l2.4212-2.42119c0.223287-0.22306 0.169527-0.53945 0-0.80545l-2.498378-3.92587c0.200073-0.40412 0.37072-0.81758 0.516014-1.24438l4.54338-1.00798c0.308203-0.0653 0.569162-0.25852 0.569162-0.57398v-3.41461c0-0.31546-0.253424-0.57399-0.569162-0.57399l-4.54338-1.00797c-0.144378-0.43399-0.319912-0.85771-0.520901-1.26846l2.483899-3.9018c0.223287-0.22306 0.223287-0.58238 0-0.80544l-2.416383-2.4212c-0.223287-0.22306-0.539126-0.16986-0.805482 0l-3.921202 2.49353c-0.400246-0.19786-0.8121-0.36679-1.234715-0.51146l-1.007998-4.54325c-0.06822-0.308-0.25821-0.56932-0.574049-0.56932zm1.707375 9.8775a4.9388781 4.9387645 0 0 1 4.938882 4.9388 4.9388781 4.9387645 0 0 1-4.938882 4.93879 4.9388781 4.9387645 0 0 1-4.938872-4.93879 4.9388781 4.9387645 0 0 1 4.938872-4.9388z"
         fill="#4c4f69"
         id="path3" />
    </g>
  </g>
</svg>
